<mxfile host="app.diagrams.net" modified="2024-06-17T09:01:21.084Z" agent="Mozilla/5.0 (X11; Linux x86_64) AppleWebKit/537.36 (KHTML, like Gecko) Chrome/124.0.0.0 Safari/537.36" etag="IZIbOuYJaZZMtAcpisAp" version="24.5.4" type="device">
  <diagram name="Page-1" id="okeh4sYhEiEe8Vv52Vou">
    <mxGraphModel dx="926" dy="892" grid="1" gridSize="10" guides="1" tooltips="1" connect="1" arrows="1" fold="1" page="1" pageScale="1" pageWidth="827" pageHeight="1169" math="0" shadow="0">
      <root>
        <mxCell id="0" />
        <mxCell id="1" parent="0" />
        <mxCell id="fM6thUue3wjX5BOA2LkH-28" value="" style="rounded=0;whiteSpace=wrap;html=1;" vertex="1" parent="1">
          <mxGeometry x="160" y="470" width="520" height="160" as="geometry" />
        </mxCell>
        <mxCell id="fM6thUue3wjX5BOA2LkH-29" value="" style="rounded=0;whiteSpace=wrap;html=1;" vertex="1" parent="1">
          <mxGeometry x="160" y="310" width="520" height="160" as="geometry" />
        </mxCell>
        <mxCell id="fM6thUue3wjX5BOA2LkH-30" value="" style="rounded=0;whiteSpace=wrap;html=1;" vertex="1" parent="1">
          <mxGeometry x="160" y="150" width="520" height="160" as="geometry" />
        </mxCell>
        <mxCell id="fM6thUue3wjX5BOA2LkH-38" value="&lt;h3&gt;Stage 1: Reproduction&lt;/h3&gt;" style="rounded=0;whiteSpace=wrap;html=1;align=center;fillColor=#FFCC99;" vertex="1" parent="1">
          <mxGeometry x="40" y="150" width="120" height="160" as="geometry" />
        </mxCell>
        <mxCell id="fM6thUue3wjX5BOA2LkH-39" value="&lt;h3&gt;Stage 2: Evaluation&lt;/h3&gt;" style="rounded=0;whiteSpace=wrap;html=1;align=center;fillColor=#FFCC99;" vertex="1" parent="1">
          <mxGeometry x="40" y="310" width="120" height="160" as="geometry" />
        </mxCell>
        <mxCell id="fM6thUue3wjX5BOA2LkH-40" value="&lt;h3&gt;Stage 3:&lt;br&gt;Report and research compendium&lt;/h3&gt;" style="rounded=0;whiteSpace=wrap;html=1;align=center;fillColor=#FFCC99;" vertex="1" parent="1">
          <mxGeometry x="40" y="470" width="120" height="160" as="geometry" />
        </mxCell>
        <mxCell id="fM6thUue3wjX5BOA2LkH-41" value="&lt;h2&gt;&lt;br&gt;&lt;/h2&gt;" style="rounded=0;whiteSpace=wrap;html=1;fillColor=#ffa64d;" vertex="1" parent="1">
          <mxGeometry x="40" y="40" width="640" height="110" as="geometry" />
        </mxCell>
        <mxCell id="fM6thUue3wjX5BOA2LkH-42" value="&lt;h2 style=&quot;margin-top: 0px;&quot;&gt;Computational Reproducibility Assessment&lt;/h2&gt;" style="text;html=1;whiteSpace=wrap;overflow=hidden;rounded=0;fontColor=#000000;align=center;" vertex="1" parent="1">
          <mxGeometry x="160" y="50" width="521" height="40" as="geometry" />
        </mxCell>
        <mxCell id="fM6thUue3wjX5BOA2LkH-43" value="" style="shape=image;imageAspect=0;aspect=fixed;verticalLabelPosition=bottom;verticalAlign=top;image=data:image/png,iVBORw0KGgoAAAANSUhEUgAAAa4AAAIACAMAAADt1XirAAAAsVBMVEUAAAAAAAAAAAAAAAAAAAAAAAAAAAAAAAAAAAAAAAAAAAAAAAAAAAAAAAAAAAAAAAAAAAAAAAAAAAAAAAAAAAAAAAAAAAAAAAAAAAAAAAAAAAAAAAAAAAAAAAAAAAAAAAAAAAAAAAAAAAAAAAAAAAAAAAAAAAAAAAAAAAAAAAAAAAAAAAAAAAAAAAAAAAAAAAAAAAAAAAAAAAAAAAAAAAAAAAAAAAAAAAAAAAAAAAAAAAAk2wLSAAAAOnRSTlMAAwYKDRAUGBwiJysuMjY6P0RJUFdcYWZrcXZ4e4CDh4yQlZqfpKissLS4vMLHzdLW2t7i5+vu8vX6hRBzmQAAFpVJREFUeNrs3el+okgUhvEDoqKmXeIS97jEXdwgQJ37v7CZDz0zPd2aAmQpzfu/BJ5fiXqogtSlNRdnnzMi7HUnRxBY48QZczqoENSQFfChI0QgfVbCAiWCqAlWwxtaBHBgRbgGYkjVWRld1JCasjJ2qCFlsTI81JC6sDpw85JyWB0F5EAu5EIu5EIu5EIu5EIu5EIu5EIu5EIu5EIu5EIu5EIu5EIu5EIu5EIu5FLEidWBB3ml1qyMC2pIdVkZc9SQKvisihpqyE1YEVu0CCB3YiW4JloEUbJZAV4dJYIx95y58w90CEprHzlTlz42J4dSbg9GQQVq+zkKatjBykrSkgM44TohFyAXciEXcgFyIRdyIRcgF3IhF3IBciEXciEXIBdyIRdyAXIhF3IhFyAXciEXcgFyIRdyIRcgF3IhF3IBciEXciEXIBdyIRdyAXIhF3IhFyAXIBdyAXIBciEXIBf8tEIu5emlRnswXe6PjuAg7EYZZxRmoFDrjBeWwxE41mLcqeHdC+koNLpzy+W7udZHr4FoCTKb443DsXI24yYOs45drj5cO5wQZz1s4JYWl3xzYglOmLAmr3lc6zvlGpMDp0UcJlhl0ZV7W59TJnb9Cq58aPrr7MIZucxe8dKuEIzW0uVMecuWgQ5B5FornxXgr9ooJqE3lz4rw1828al4W3XmsmLcWRVdrikOTqyk86CIOv+nva4EK0usmxo9Ir3a7nZi/2e0MLRZcfaoSI+m9s/3gH1bo9hUF4IfgFjW6JEUVvyfU5ViobUsfhhWW6dHUbH5V+KN7mf0bH4odj//ILU++Td9ulNx7PLD8SZFUl/Z4T+80z3Mqc8PyZ+VSHGmzVfMNIqqNBf8sMRHLMH0YlGjJBTPfNVCUzSW+sGqs5NgFsfpD4pb4cg3rHUKz5THUp+YmxRdZcf/2pQpVvkD37QzQref+PwU/EmBIur4/Au/TTEyLP6Clacwcn2Xn4bbz1EUPf5Nj2KT2/GXjkUKrm3zU7HbGoX2xn/oU0z0DUucTQqoZvHTOdQopDZfMaJYaCuWsssUhLngp7Q0KYyW4GveY6n1wQE4LySlD3x+Uv5Qp8BeBV83ofvNOBC3ShKNMz+xc4MCavh8y4zuNeGAvAZ9pbjkJ7csUhA1n2+ba3SXEQcmmnST9uby03O7GklVPf7Kx129ehyCaNMN5T1/C/sySby4sjWqU2QtDqdL12h9n78Jf6DJphoyq8i9Sh6HNKA/lS3+RqwK3VayWW6jJ7Y3W/7bQev5/K34fY1uMC8cxDZHUZRYRj4AK+3529mXJDMomZ1BEQw5ioVO/2m7/A15HckMSmYfpdeOI1nn6Kf8klMnXOd8tKz9brvd7S3reHZcwalb5SUzKAkrQi+HJSRruXrhlLjHzXzcbdUrpkFXGGal3uqO55ujyymx65IZlMSaQhMsd3sApg0FJ87eznrNikGBGZVmb7a1OXFiqH0xg5J7izWXdABW2HKivP20U81TRPlqZ7r3OFHbwu0ZlNxnjkKyObJzy+bECGvaKlEMSq2pJTgxTl0yg4p3eW1YPd52UNMpRnptsPU4GaL3s9aCw9tSSF1Wi9gNqxolQKsOd4KTsMzR3+Ycga9ROAWf1WHPXg1KkPE6szl+xxLRlCMxKaQpK8IavlAKXoYWx81tjDmaMoVkXFgB+55JqTF7e1ZEicL64XHGDn2TUmb2D6wAoVNo9Ux7Oe8VykTl3eGsHSiC6uf33LytNdeCMzWmKCoOZ8EeFiljxUx3t4sSRVK6cOp2TY0UoDV3nJU5RWSeOFX+vELKqMx9zoKdp6gKB06POy6QUgpZbJ/2Xii6/J5TYvcMSpz6hxP4dbpHbpNOrDedlKS/pRpMvNJ99FVqsRBMNOPYh5Ksz16OlJbrfaZUq0UxmHKCvJFByjNGHqegQ7EYcVLErEgPoTgTnLQuxaTHydhW6GFUtn+xd6fdietIGIDLNvsetux9CSRhCWswGL///4fNmXNn5nTf6U6qZMkGXM/nfNIb2VKphOHWA1lzG8O+zx5dlN4nHHomi/oxLDs9B3RhgucTXBmRVd0TrFpU6QJVF3BjTAyZHYCFfbpQ/RBmnF2ddH8ANinSxSpOYN07I63MDsA+b+ii3XzCrplPDBkdgI0LdOEKYzDZuYSX4QFY2KUr0A1hzZKRVlYHYNMSXYXSFELmF7oyOwA73dLVuD3Bhk2RXAoWMLap0xWpb5DctkROFdYwNQnoqgQTJLWrkFPeDIZOA7o6gxMS2VfJrREM7Rp0hRo7JBDWyK0hDM2LdJWKcxg71MmtVgwzPzy6Ut4zDB2b5FY5hJFTj65Y7wQjYZmc8lcwsm/SVWvuYWTpk0sTGFlX6MpV1jAyPsNlxjygK2fePDsgZxonmJh4lAPeBCZOdXKkuIOJJ8qJJ5jYFsiNdxiIbykXzJvF3smJW8Mm4pwwbxa7JQfqJ8idupQr3dOZvL6CLeSiDuWHebPYJiDbxpoWSzs6h91XF3LHFuVQ6wi5LllVCiEWtYmIdH5xhCWyaWZ0xTanOieITcmiAcRON5RbN6dMi1GVo8kV2xzrxZA6lsmWOcQGlGsDiM0yrMPfUc7dZfYfXjpA6i/Kvb8gdShlVNl907SI3rIZth6kPnwNi8j/yGKzXNhDaFvUrP6tuIXQvpB+E+ihqkn9rXpI/TJ5PYZM3Nac/qt9gkxcp2SWEBpqSgm2QMuUt3svmtHPXlLdfBVCyHx4GtHPvA/IhIUU93r7kib0q9I+vQpDNdZlRtpXQOJqaqdc95pO8urhlAx1IDPVbGwU8dpkZgWRT61m/FbxEyIrMtLXF5cd7RgifTLgf0LkUXP5k0eI7Hz3r8il7rj+yFs678IOQkgcK5qKtWaXMCCpBy0VZlc8fCChwkHX8DZNIXEoOL1adixrIF8rHyHxJJ1c2qZm18Dl9HqCxFzTsN2s+ehuckW6KmSoRBA4BMR3r5VdtuwH1d9DYK0bZBZvDYG97+jSeEuT4Gm52cl6OwhMNAeuCQS2nou+3aOe97OVji56epd61+QcTpY/iKUJgY2uMwS8DQSa9q9OdDUDia71GynlGHwLTUBmAb64bLn+FDc0AJl6bLfQ6+3B96rjL/UKvr1ntaEm1rtBbltte/SdD/CNdfTlXmwuDargO+mhpIHyCXxVi5cYRnQWvN5kvvg/7w8VOk8j8P2gL3mhZHKd90eZTg+XP71Cj77Su7jJVTsK/zezN7K22Jhe3ORa4gvNi59eU/pCKb60g5PGJe4LJ2CLS3YqxnHtAmrcu8vfe93ZuSL0TmfhGV+J6Dy9W7k+VLu8I/8f+MrpCtoAqjaquyvSuBJY2ajzbsDW17iS6INtQ39Ql9SKNS4Z83OP+hevbaZH0rjSulD5nPhZGJc0LiHzHe4m8brwnTSu9NbytaT3JTsaV1KdpG+eFbh2pHEltku2aSoL4ta4Ul1slBPddo4rGldylRhcw0RnJwvSuCyYJzlF8SNwDTSudCsbkU//dAOuU6Bx2RCcwNVJ0FPzRhqXFW8JfkJ0Da6uxpX2/YY1/UMJXEdf47LDP4KrZPzeeyWNK/V++b5xt0dP47KlB66xaUkkCjQuW4IITDvTCtSUNC5rpuCqGL66hhqXPUPDl9cYXCWNy56S4ctrA6YVaVwWrYx2XoUYTM8al03PYIoLRgXDtsaVTX/ojUk/6NHTuGzyjibdoTMwTUnjsmpq8tHyEEx3Gpddd2AKTTbJdY3Lrjq4KvJK/oE0LssOYOrJl5NTjSuzl9eTfKVxr3HZdi+fKp9gamtctrXFRfkATHGgcdnmx2AqSLfWK9K4sisbtqRl/BeNy74X6dHVCExDjSvDM6+RtPu3oXHZ1wDTXNinEfsaV4ZrjZ3w79ekcTmwls2WGpheNa5Muw1rsorhg8blwgOYurIaflfjyrRV/k62jq9qXC5UwTQS1YRPpHE5cQLPVLQy2WhcbmxENcAQPDONy42Z5PzfB9NI43JjBCafiCpgutO43LiVrPXaYOpqXBmv5NuSyycNjSvjIm9PsksualxuFCWvo2fwRKRxORIJ7pOMwbPTuFzZCi55vYNnqXG5sgTPu+D7alONK+vW0A9BDWqscbkyBs9acPT/rHFlfYfyU9BTf69xuXIvuFESg2eocbkyAE8s6LjuaVyu9MDkUxFMHY3LlQ6YSlQBU1PjcqUJpgpVwVTXuFypgalKDTBVNS5XKmBqUAtMJY3LlRKYWtQGU0HjcqUApjZ1wBRoXK4EYOpoXGfA58d1AyZf43LFA9MNPy5P43JG47rS2dXRh2HmfF1qXOfK8Mr3XTVDVf9M910tMBUvMC5z8bx5ho2GLUE1OFdxAfEtpURyKlIDUy1ncSHuUDoEGQiqwXmLC+uza5KvUAlM7dzFhdq5/UheiQIwdfMXV+/cbgwF5IGpn7+4+pSOvqCyFIHnVuNy5VZwCWgPnkeNy5VH8OwFPxMw0riyvku+EdxWedO4XHkV3NmagWehcbmyAM9MEO1a43JlDZ5XwdfjQ43LlVDwLfl7MPkalxu+5CMZAzBVNS43qmAaSD5k2NG4Mr6AciMpBw80LjcGYGpIjjKfNC43nkQH+hF4XjWubHfJkeg3U5YalxtL8GxFe+pQ43IjFNWVJmAqaFyZtq1NZG+6lsblQku21uuDaaiH/y4MZf89TTCN8hZX46xOu9CU9ZAuchbXjlKxEPZRHy54afgjPwvDg/RjleVcxfWDUlGWfqh1AqZujuLa9ikdXQirSvcXXDWs9Zzo1igtT2C6l+Y7I2XdTPpsq4Ap1MG1LxTf2IrAVNXRzewoORKXhNHX4c2sP34p/475WIfXtjGYXuRVq40Or20becW2Aa6ijq9dRYMCph+DqacDbFcPBl/wX4HpRQfYrhdZCepvL/ryysjGZKIMwFXREbapAq6ByV4NQx1im4YwqlAcwPSmQ2zTG5gOZnXGo6djbI93NKuu34Oro4NsTwdc92afdcBIB9meEcw+aeJFYNrqINuzBVPk0S/m4KrrKNtSB9ecfvUAricdZluewPVAv2pCCxup28D0a1zeAVw1HWc7quA6ePQPb/o0TNsTzIsTQ+jaMGXbBKW/CtiaOtI2NJGksL7WnfK57pHXidqXQ60bWuCFibr1W4C2AKSoB7bW79PW5usUzRI+zV7BFZd1tJMqx+B6TXZzBXjU4U7qEUh2T8s/gutTFxsJeZ/gOvoJT6KBrg54Ml2wvSVfq8x1wJOZJ1+HBxG0zpuOGtii4Iu+HL2Lkoox2N5sPFAjvdyQQDGysUzwDmB70EE39wC2g2dljoa+jropP7Tz1mmD71aH3dQt+Np2Tsyw1a2yIU8yyt8+VPVeuWN98D3YKjxio9PLiLeBtWL6XKeXa33Yqx71oNMrs8klPwj29jq9zmdy7T36xjP4djq9xLwd+J7pO5VY917nsueKK/StKfj2gY6/TLAH35S+dwNAG7BdeYTADTFswBdpk41IOQLfhjiGEJhoBBJjCAyJIziAL25oBnz1GHyHwMGvR39oCHwfLn4YvXyC7pVd6EPgVHbyhN0XNAeewh4CY+KqxgD0/pBtIwjEVWJ7h642rGvEEHgnviYkVlo6ZPBWkGiSwAwSdxrG9+4gMSNyNr0i/RzAtyqRcHKJzCGx0Di+s4DE3OD7lXqSYs8tRFokNNfHYXaPwjlJNSCy1NXhF7wlRBqGPxOrPfNWPEDkjeSqMXSzbG2DLC1oyI0hstVGgD8IthAZm558irxqML83AZDCCf0TAD1KSawPmSfzrh2RSC8s/0YtApBKd9kAMht9ff2fYAOZAZny1tDXV0KvkFl7ZKwFaDEqkVsItdL834jbmtDP2nGqz6fyETKhfuDrJ5UQMscyJXIHobUuN/4nWEPonpLx1hCaarH3P7wp5OuMhFoxhP7SoP72A0Jxy+K3R/WDhzJDSI3tNDMKxTeaFdFNDAb7DbY9SEX6YQBqRpDqkRXvkAqrlHPVEFLvZEfpAKldmXKtvIPUoUSW9CG2KVKOFTcQ65M1U4gtA8qtYAmxKdlTCiH2EeQ2rQ+IhSWyqAu5RU7z8heQ65FVE8jN/VymNYfchOwq7CA3DzQtll2BLGvF+jxkCBaQi1tOOlF1vcFdZWTfAe0tYGBVpBwprmBg4ZED5RAGNmXKjfIGBsLyv9q51yVFcTCM46+cFLpVGtFRWlFsuxt1PAAqyXP/F7Zf9sNW7dbOTDhIAr8rgPyLIhySyt4xC0htagk7gYDqvl8sIeI2olYY3SBiSVXp7SGCedQCHoOIfY8qY6UQweekvDmHiNSiCg0ZhEQ9UlovghA2pEpNIWZvkMKMPcRMqWIbiLnYpCz7AjEbqlrvCDEPjxTlPSDm2KPKWQnE8ICUFHCISSyqgfOAoNgk5ZgxBD0cqoXLISgdkmKGKQTU+zfmDKLYnJQyZxA1o9qEEBZbpAwrhrCQarSDsMwlRbgZhO3q/n1E3EYjBWgbiDtoVCvjDHGXV5Le6wXizgbVzLpCHF9qJDVtySEusah2gwwFnIckseEZBWQDegLnjgL4WidJ6WuOAu4OPcXwgSJSj6TkpSjiMaQnGeUo5LNP0ul/opB8RE/jMhSSBxpJRQtyFMJceqI3hmKuHknEu6IY9kYkdS8cXkgSLwdIXovIzVEQ3/ZJAv0tR0G5S083zlEUW5vUcGbIUFQ+pgYYPVDY412nBtODMs5xRI3wekNx93eDGsp4v6O42ys1hJOilGAmNZBZSiykDjXG4IoyPNZ9apj++oEyXAfUINYJpeC7V2qQlx1HKU4WNYoeoyRHr0eN0POOKEmsU8P0PlCWJLDo6awgQVk+etQ8S5SGf7r0VO4nR2mW1Eg+Q3mS5YCeZLBMUB7my7R+UBw/zEyqnTk7cAiQce3o4IJSse+JTjXSJ18MAmRdeGPEQNnFpibVwpx+M5QsNqjZVigdPy5sqpi9OHKUbkWNN8lRgWs0MagixiS6ogL5hCTgXFEJfgo9o/RUXnjiqMTVISkYn6gKP0W+TSWx/ejEUZVPQ6ldC8Td9qFvFy0V7m8QoObeFKMUFctPu4XnaPSHNMdb7E45KpaOSCrmF+rA08PHcvrmmPQLpvM2XX4cUo46fJkkmxlDjVh6Onxt18tgPvP9ycTzJhPfn82D5Xr7dTil9R7LjCTknNFKZ4ekpIUcrcNDjWQ1StAyyZgkpm/RKlud5OYmaI3EJenpEVoi0kkF4wta4DImRWjvDIpj7xqpwz5AaQeb1OKnUFbmk3L0kEFJLNRJRXYMBcU2qco9QzFnl1Q2zaCQbEqK04M7FHEPdFKfGeZQQB6a1A5WxCA5FlnUHv2IyR2rT+3S3zBIim361D7W6g4J3VcWtZOxyCCZbGFQe2nTMyRynmrUcuNvDinw7zF1iAbhDY13Cwddqb9p/hGNdvS1rtI/OesMDZWtna7Pv/S8b97EO5bX69r8N/PHEY1y/GF2Vf7PIDijIc5BN7v4DXZwwtOdArsr8bsG8z3D07DDvLuu/pA++cjwBLePid6NvpCXxYHVe1ktXrpRL0JzV0eGGrDjyu2ehcugjYP4hgrd4mDcpSqV7Uc/c5Qu/xn53RywGj3HX+8zlCTbr32ne2VRNWM028QXBmHsEm9mI6MbyTr1x9Pldn+547fdL/vtcjrud2P3RNpg6E0Xq2gXH0/nJLs/csYBzvLHPUvOp2O8i1aLqTccKDCZ+Aslf6cqOJMv8AAAAABJRU5ErkJggg==;" vertex="1" parent="1">
          <mxGeometry x="188" y="101" width="25.2" height="30" as="geometry" />
        </mxCell>
        <mxCell id="fM6thUue3wjX5BOA2LkH-44" value="Record time for stage 1 (limit: 40h) and stage 2" style="text;html=1;align=center;verticalAlign=middle;whiteSpace=wrap;rounded=0;" vertex="1" parent="1">
          <mxGeometry x="219" y="101" width="124" height="30" as="geometry" />
        </mxCell>
        <mxCell id="fM6thUue3wjX5BOA2LkH-45" value="Share results via Quarto site" style="text;html=1;align=center;verticalAlign=middle;whiteSpace=wrap;rounded=0;" vertex="1" parent="1">
          <mxGeometry x="570" y="101" width="105.72" height="30" as="geometry" />
        </mxCell>
        <mxCell id="fM6thUue3wjX5BOA2LkH-46" value="" style="shape=image;imageAspect=0;aspect=fixed;verticalLabelPosition=bottom;verticalAlign=top;image=data:image/png,iVBORw0KGgoAAAANSUhEUgAAAa8AAAIACAMAAAACFxOVAAAAmVBMVEUAAAAAAAAAAAAAAAAAAAAAAAAAAAAAAAAAAAAAAAAAAAAAAAAAAAAAAAAAAAAAAAAAAAAAAAAAAAAAAAAAAAAAAAAAAAAAAAAAAAAAAAAAAAAAAAAAAAAAAAAAAAAAAAAAAAAAAAAAAAAAAAAAAAAAAAAAAAAAAAAAAAAAAAAAAAAAAAAAAAAAAAAAAAAAAAAAAAAAAAAAAAAjHWqVAAAAM3RSTlMAz/++3YDH+M38FWsBVeY+j4c2tSidp7xa4XfWo8swsJZ7xEogwQ5x6kMH7htiBFALE/Imtr/RAAAI2klEQVR42u3d2VIiWxaA4e0qNQtEcJ6qnFGZRd7/4Tq6oqPjdBwJUPaGpM/333uzvsgUkh250vea9m8ubq+rRih7jdn1/u+b/jTl6uPgsjLW0lWn49eUobNzWGtq9tBNK9a9cA9cY43zUVqhyaNra83N3ibpu53dmt/6e+mm7/U+M7xN1Ouk73TgP9eGqq7S13szt43VGKevNja1TYIdpq/VdzPcaNVJ+krdnpFttnYzLV/rh4Ftuvu0fAfGtfmu0rI1h6a1+drTtGRHhlWH9tJyNT00rEXD17RUe0ZVj97SMk3aJlWPfrXSEvUNqi6dpCV6MKe6dJyWaNec6tJOWtzImGpT4zUt7N2Y6lM/LezRlOrTQVrYecxvd0d/qmJOjZ0vdx3zO0oLO415tTtJCz6TzdLX6w9jXhdpYU8xr3dOeb0W/5Z/mhZ2G/OacirjNYp5XaaF/Yx5TTiV8fqIef3gxYsXL168ePHixYsXL168ePHiJV68ePHixYsXL168ePHixYsXL168ePHixYsXL168ePHixYsXL168ePHixYsXL168ePHixYsXL168ePHixYsXL168ePHixYsXL168ePHixYuXePHixYsXL168ePHixYsXL168ePHixYsXL17/dK+nmFMDUx297mNObUx19Dqe+7eY6uj1HHPaw1RHr8EwPu8MU328Ft8QLynV0+ujF5/UOKFUT690GJ90BKk+XovviKe+LNfXq3X8N64po/p6pXQ1jL9U7bm66u2VPo5n/9X67ZN87b1Smr4fXe7svJyPm3iKe3mmxEu8ePHiJV68ePESL168eIkXL168xIsXL17ixYsXL/HixYuXePHixUvb5DU4eX5fsX6T15q8Rg/DyNDTM691eB0OI1MXU17FvcaRr6cpr8JenUZk7IJXWa/pdWTtkFdRr5vI2+6EV0GvSTvCBbY9Xs+Ru1NeBb0eInfVgFc5r9vI3gmvcl6zyN4Vr2Je08jfDa9iXs34ft5kuX6vV9fXVnm1qsjemFcxr/QrstfhVc7rPHLXeOVVzusqcvfk+UZBr+ksMnfAq6BXOoq8Dae8Sno1h5G1N79/FfVK48jZ/oRXSa/Md8TdkfMApb1ax5Grna7zUcW9UursR456jwPnD9dzvvds/Li3Ym/9gfO9zs/z4sWLFy9evHiJFy9evMSLFy9e4sWLFy/x4sWLl3jx4sVLvHjx4iVevHjxEi9evHiJFy9evMSLFy9e4sWLFy/x4sWLFy9evNbnNZiuWIvXurxa76e9WLVqZ6/Jax1e3afI02zMq7zXXS+ydcyrtNeo7XXLW+TVuoycVXe8inodxrfyHWFDXj+tQ9wmr7vI3Tmvgl57kbtei1c5rx+RvTNe5bx6ERacb4/XIP6djTfb4vVhP+w/3uuRVzGvSSPCgr3t8Uq7kb1nXuW87iN7I17lvA4id7883yjoNWrEn/wEthVe+W+IjS6vkl53jcjag99TCnplX8Dc/uBV1mvwFPmqOs4DFPZKry+Rq9mz8zbFvdJgr4osvZw5z7aW873Ng4uX/RU7PT5xvtf5eV68ePHixYsXL/HixYuXePHixUu8ePHiJV68ePESL168eIkXL168xIsXL17ixYsXL/HixYuXePHixUu8ePHiJV68ePHixYsXL17e9+V9et6n532VvLwP1vuWvW/Z+8x52RdgH4d9HPbd8LJP6v/K69q+NvsQedk3yss+X/uy7cu2j57XX7wuI3tnvMp57UXuei1e5bzuInfnnm8U9Eo/I3MnvEp6Hca3coZnQ16ty8hZdcerqFcatX352iavdNfz49c2eaXuU+RpNnaebQ1eqfV+34tVq24fm86Lru089mC6Yi3nsZ2f58WLFy9evHjxEi9evHiJFy9evMSLFy9e4sWLFy/x4sWLl3jx4sVLvHjx4iVevHjxEi9evHiJFy9evMSLFy9evHjx4sWLFy9e6/M6Gz/urdhbf8BrPV6d/chR73HAq7xX6zhytdPlVdzrKPK1O+JV2GscOduf8Crq1RzadrNNXkeRt+GUV0Gv6cx6vW3yuorcPfEq6HUeuWu88irn9Suy1+FVzKtVRfbGvIp5vUb+bngV82raD7tVXlPX11Z5pVlk74pXOa/bCAsRt8jrIXJXDXiV83qO3J16vlHQa9K23nybvNJN5G13wquk1/Ta5bVNXqnTiIxdOA9Q0iv3gYCnKa/SXulwGJm6mDofVd4rjR6yiD09Oy+6pvO9g5Pn9xXrN53Hdn6eFy9evHjx4sVLvHjx4iVevHjxEi9evHiJFy9evMSLFy9e4sWLFy/x4sWLl3jx4sVrbtP+wd7e2/sHnW3w6lxU8afGy9UEUM29Rvfxl3ZOCNXaq9OL/6kaI6qxV7/y0vIt8uoO4++9Q6qpV2s/Pqnnc2JNva7i044o1dPrZ3xa9Yqpjl5n3oK9VV4HMaffmOrodR5z+oWpjl6nMachpjp6/Yg5VZh48eLFixcvXrx48eLFixcvXrx48eLFixcvXrx48eLFixcvXrx48eLFixcvXrx48eLFixcvXrx48eLFixcvXrx48eLFixcvXrx48RIvXrx4YeLFixcvXrx48eLFixcvXrx48eLFixevbfJ64cWLFy9evHjx4sWLFy9evHjx2nKv25jXlFMZr1HM6zIt7Cn+ZCX9+rzGMa/TFfaNRq8DqoTX8zDmdZEWdh7z293Rn6qYU2Pny13H/I7Swh5DtekgLezdlOpTPy1sZEq1qfGaFrdrTnVpJy3RgznVpeO0RH1zqksnaYkmbYOqR7/SUu2ZVD16S0vVrIyqDg1f03IdmVUdekxL9jE0rM3XnqZlOzCtzXeYlq71w7g23X36QqOegW2264/0lfo+I2606iR9rbGZbbDGe/pPPnNsA9dV+nrjhsFtpuowfadnX8M2UruTvlf31vDW3+UofbfJo4+Ja2520Eor1P3tv9gaa5w304qdnbvG1tTsoZsy9Dq+RFa86nQ8Tbma9h9/77cr98YCNWbX+79vOp9j/QvVNu6ZuKnjYAAAAABJRU5ErkJggg==;" vertex="1" parent="1">
          <mxGeometry x="370" y="96" width="33.67" height="40" as="geometry" />
        </mxCell>
        <mxCell id="fM6thUue3wjX5BOA2LkH-47" value="Keep logbook throughout" style="text;html=1;align=center;verticalAlign=middle;whiteSpace=wrap;rounded=0;" vertex="1" parent="1">
          <mxGeometry x="400" y="101" width="97" height="30" as="geometry" />
        </mxCell>
        <mxCell id="fM6thUue3wjX5BOA2LkH-48" value="" style="shape=image;imageAspect=0;aspect=fixed;verticalLabelPosition=bottom;verticalAlign=top;image=data:image/png,iVBORw0KGgoAAAANSUhEUgAAAgAAAAGqCAMAAABKyQzdAAAApVBMVEUAAAAAAAAAAAAAAAAAAAAAAAAAAAAAAAAAAAAAAAAAAAAAAAAAAAAAAAAAAAAAAAAAAAAAAAAAAAAAAAAAAAAAAAAAAAAAAAAAAAAAAAAAAAAAAAAAAAAAAAAAAAAAAAAAAAAAAAAAAAAAAAAAAAAAAAAAAAAAAAAAAAAAAAAAAAAAAAAAAAAAAAAAAAAAAAAAAAAAAAAAAAAAAAAAAAAAAAAAAABU/knhAAAANnRSTlMAUOdEzzhoo5eOCIyABbwt9/xV8u3HFD0xKeAZArBxDtqq1QsgSGK+XJSfhR22iXckVrmbe02TlgDRAAANHklEQVR42uzci1bqOhSF4VABAUVbe+FWyh0BRQFlvv+jna0b9knP5pKAY5yknd8jrPyO1OEyQhKVJgXKvEkpEgc0521QTvSrTZHWWnIq+bJpCUniciJ54yZiL65wHHlUicVvVc4in6ri24yTyKuZ+CUKOIi8CiJeALm/BHo+x5Bffo9fAPk2EwsOIc8Wosgh5FlR8BMg13zhcQh55gnOIN8YAAMgBkAMgBgAMQBiAMQAiAEQAyAGIPECh6wReD8agLecrmJBFolX06X3UwF0WxyojVrdHwnAnXKUtpq61wfgNjhHezXcqwMocIo2214bwJwztFv1ugCCHkdot15wVQD3nKDt7q8KYMUB2m51TQBtzs9+/SsC6HJ89uteEUCF47Pf/IoAqhyf/e4YAANgAAyAATAABsAAGAADYAAMgAEwAAbAABgAA2AADIABMAAGwAAYAANgAAyAATAABsAAGAAD+NEA4mZDFvFIchbAG//XJN8BPCDtkWfyS33UG9UYQF7FAw8AXKe4rCQ3EQPImxJS+otZhwHkLwCZFyYdBpAbLQDJtjBN3m5DHzvechszgHx4BdAQO6vZfIjf2uUaA8iDCMAkVUT5Gd+cct2+AOqPTcljjQGcUwewFmnjewdf+lvrAhggpcgAznKB6d9ZrIv40u1YFoCDtDoDOCQex/LIEnFAYQgAwYwBZExUuAt9rORXGz4PV1IOAOC2xwCyY5yEHpD67isCb8daGQDAsMUAsmE0DbGXiL3w1OsbTwEAf8IAMqBzFxx8dXEJ3IqjXkMA3pQB2K4zdyHbyL84dcVx9QoAJAzAarV7/+irax/Agzgl8QAkDMBikzb+y6tJL7iG4qS1B6DMAGzVW+CAlth5AYbitIILeAUGYKdS//Tb6+8Kr3CuPcBvMgAblV0clIidMhCIc8oA2hEDsE48xxEfYmcGeGr7tJuYAVim1sUxz2KnAGB0vqQlgIQB2GX0jKMcsXMDIBJnRW3Afcx2ANFYNsry+Us/9SXFt/gbHhDGWQ7gyYPMHwu71Zc4pSktBTZVj6+c5QDmSHsSdlvgpHVqKVBBrQ8EUYYDqGQrgHec9plaClSxBVBlAJaYeDhtkVoKVLIE3FcGYIWOgzPC1FKgkkcPmDMAK2xwTpBaClQzANyIAVigjPMieSlQTRPAJwMwX8fHeSV5KVDRA9COGYDxBlAwk5cCFRUATBiA6UpQcS8vBSqqO8AtAzDdM1QMpKVAnTP0awzAbDdQUpSXAlWVAEwYgNkeoMSXlwKVOcCcARitCUUdaSlQ2QLoMwCjfUBRQ1oKVDYD0GEABuv5UDSVlgKVjQEUGIDBplD1prMUKI/4ngEYbANVXXkpUNkS6DIAc/U8qBrKS4HK3oAhAzDXGsrcWFoKVFYG3JgBGKsCdWNpKVBJb9y8eQHQYQDG6kPdjbQUeOLI1+XPu0U3HDoedpoMwFQRNJQPLQWOXqUjd5HCAIx3Aw3VP0uBL19H/tF9lo78KL//xo9AYyXQsBTfXJzht4sPg8pLMt02WlGdG0Em+4CGvjS040feSQ2Ra+Fm20CDV//3XNzfR/4+LTQeOzWRwgDsMYSOlvjW+uvIGYCtAQTQsRV/MIBMBBB70JEwgIwFMIKWCgPIWAARtDwwgHwH4EcMIFsB9KCnwgCyFUANerz9CFbht+cvD182yy/dvcHe7e1tiQGYy4WeZ7Ezh7ICAzBXGxKd0xz1oYT/GGK2EJraNekVMDW8Agw2gK53sVOFojEDMNcLdPkdzUvAqzMAc62hbSH0LoE2fw00WAv6SnqXwIYBGCwOoC0UWpfAGwMw2RL6ZlqXwJoBmCyBPmekcwl0GEDWPgLwonEJ9Pm3ALP1oc8dq18CcwZgthdcYCAd0hk3RgfQ1gqgdfK5+IKw0iMu0ZAehT/JqRsdwL3vyj5EyixwZZu6kDUcV1aMhJ1CXKAYi52Sh+P+z8eiSdEUlygrHlOTAZiu5uACTk/pEggFAzDeJy5RFSqXwBMDMF8vwAW8lsJBDWMGYIF3XGIp9mpDHLEWDED8097daCWucwEY3hYQRZHWlkLLryCiyAc6Ovv+L+1znTMzS49IR1DSJO9zCdnvItjQWH6Nse5iVrgJVPsEYIUj3cWkKb+tdKOOEIAdBrqLYcEmsBACsEQv0R0k6dZNIEgJwBqXuosT2bYJzIQA7HGiO4haWzaBUyEAizTauoO5fLgJzJsEYJVerju4/OhcOe8JAdilFevn5Y3Nm0CSCQHYprNLAc8bN4G4JgRgn8oOBcS9DZtA3BEC8OUzoC7vNoGgKwRgp1a+x4tCIt1IX0wehABs1WvrZ7Xl7SYwGAkB2KvxpJ91+3oTiNYiBGC1y2TnF4VEul0hANstB/o59/IKATjgMtfPCHsE4JjGOtG/Vp3xCeCe9D75y/E/9oUAXDQ9rmqRaFAREQJwVe002Db99jAVIQCn9bvP81A3CK5ueiJCAB5odm9OB5Mk0n+Eebv+fLSUFwTglX66vF6mU/kXAYAAQAAgABAACAAEAAIAAcCiADrnJ85bXTYIYLP0Qr2Q1whgk0ZVPRFnBLDBUL3xgwA2aKs3opQA3kvUHzUCeC9Xf2QE8N5CvRH0CeC9LFRfDPkSuMltpH5Y8Bxgs+4gVueF7VueBH6s4TzOAkAAIAAQAAgABAACAAGAAEAAIAAQAAgABAACAAGAAEAAIAAQAAgABAACgKMBZPVASymoZ/JGZ5CoQ4J6VoYALkMtrfBIXlmra8JLXg7dLnyQP2bqnjAzHsCTltqJ43eZPBkPYKylNpbfGpE6aMwVMdsF8luqLkq4JGq7tvzWj9VBVeMBrK251WOhDlobD2A60RKbTOWPZaLOmUyNByC9tpZWuyevtMbqmHavFI+CZ2f1UjqbyVvNx7u6Q85mnAWAAEAAIAAQAAgABAACAAGAAEAAIAAQAAEQAAEQAAEQAAEQAAEQAAEQAAEQAAEQAAEQAAEQAAEQAAEQAAEQAAEQAAHsGED/oYbDuy5JAP1hoDBhfFuKAOpMwpj7EgRwwxgMqpgPoMoUDBoYD6DBEEwKjAcwYgh+ByA5UzBobj6Ac6Zg0K35ABp8CzRn0DcfgIx4EGBIdNosx6Pg5eMxDu8o5TAIBAACAAGAAEAAIAAQAAgABAACAAGAAAiAAAiAAAiAAAiAAAiAAAiAAAiAAAiAAAiAAAigIIA7ls9+d3sEcMXy2e9qjwDGLJ/9JnsEoEvWz3ZL3SeANQtou/VeAQQNVtBujWCvAPSeJbTbue4XQNRhDW3WifYMQJMWq2ivVqL7BqDxjHW01SzRIqLFnnospY16T6pfEoCGi9mI9bTLaLYI9RMBFAomVVhjEuhfEq5achMBgABAACAAEAAIAAQAAgABgAB+Ced36+Pj9d08JAD/hItKU35pVhYhAXglOuvJG72ziAD80c7knaxNAL44acoGzRMC8MO5fOCeAHxwKh86JQD3XfTlQ/0LAnBd3JMtejEBOG4oWw0JwG15o+hVOgJw2loKrAnAZVFPCvQiAnBYWwq1CcBhKym0IgC//93+LQE4rCaFagTgsEwKZQTgsAcp9EAADmtJoS4BOGwmhWYE4PpJAKcB/gZQl0J1AnBY0JcC/YAAXFaRAhUOg5x2JQWuCMBpUSZbZREBuO2HbPWDXwS57paTIL8DiFvyoVZMAO7Ll/KB65z3AnyQZ7JRlvNmkB+Sn7LBz0Q9JJH6aJHKf6QL9VEkiXopvl/KK8v7WL2USFU9Fc3XtZG8GNXW80g9VZWF+iwOglh9tpBbLsry2a1MY1bBX/FU5Ixl8NeZiKQJ6+CrJJUXjyyErx7lHytWwk8r+eWUtfDRqfxxHLIcvgmP5ZWHASvil8GDvJWtJqyKLyarTDYYdTsVOK/T5f8AAwAAAAAAAAAAAAAAACip0blRKRMw7EGNypiA3wHUmIBhXTWqwwQM66hRP5mAYT/VqBsmYNiNGrVmAoY9q1GnTMCwEzXqigkY9kONqjIBw3I1KmYCZk3VsCUzMKqjhlWYgVFDNeyZGRh1pYYNmIFRgRoWMAOTMjXumimY/grAaYC/LvQFzwK9lUZqXNJkDmaPAnkS4K+5lsAJczD5e0D2AI+ttBSOmIQZ00RL4X+MwoxjLYeIZ0FGNHMtiTOGYcKNlkXM9dsGNHItjXPGcXhDLY+Ej4CDSxMtkXsGcmhPWiZxj4kcVkfLpc5IDmo61nd4Tdgjd1o24wZTOZyKls+KsRxMGmj5RFwWcij9Cy2jnIcBB3Kvm/DrQF8caVkNGc4B1GItq2jGeL7ddaDlFXNt4HdLx1pmOY+Ev9eoreU24e7Y7zRta9m1+WPw+0znqhTgr9FclQL8lVbVDlW+CX6H5URtMeavwa/XytUeCb8O+GqVWG0Scm3E17qJ1DJ3vDL6dZp3ap82V0h+lXSuNkp4a/hrdHO11N2U6e3vOFRrjfmZ2L5GV2qz6IwPgf10jyzXKvkC/x8eJoty8WuPhAAAAABJRU5ErkJggg==;" vertex="1" parent="1">
          <mxGeometry x="522.9200000000001" y="96" width="48.08" height="40" as="geometry" />
        </mxCell>
        <mxCell id="fM6thUue3wjX5BOA2LkH-49" value="" style="shape=image;imageAspect=0;aspect=fixed;verticalLabelPosition=bottom;verticalAlign=top;image=data:image/png,iVBORw0KGgoAAAANSUhEUgAAAxoAAAMaCAYAAAABQDBSAAAACXBIWXMAAA7DAAAOwwHHb6hkAAAAGXRFWHRTb2Z0d2FyZQB3d3cuaW5rc2NhcGUub3Jnm+48GgAAIABJREFUeJzs3Xm4XmV59/3vTkLCGGZBZkVGAQdmGQUUUAZFJpkCitjXtmrb91Af7dPq09aifZ9WbWsFB0YZRVFAmQQURWZRUUBAVAaZxzAEkuz3j3NvE0J2su+117rPda37+zmOHJn2vdYPkux9n+s6z+saGh4eRpIkSZLqNCk7gCRJkqTusdCQJEmSVDsLDUmSJEm1s9CQJEmSVDsLDUmSJEm1s9CQJEmSVDsLDUmSJEm1s9CQJEmSVDsLDUmSJEm1s9CQJEmSVDsLDUmSJEm1s9CQJEmSVDsLDUmSJEm1s9CQJEmSVDsLDUmSJEm1s9CQJEmSVDsLDUmSJEm1s9CQJEmSVDsLDUmSJEm1s9CQJEmSVDsLDUmSJEm1s9CQJEmSVDsLDUmSJEm1s9CQJEmSVLsp2QEkSa23DLAFsCnwamDZkV9/Afg98FvgJmBWRjhJUjtZaEiSFmY14AhgX2AHFv/1YhZwNXAWcC7wdKPpJEmtNzQ8PJydQZLUHhsDfw8cBEyteI0ngS8D/zbyY0nSALLQkCQBrAh8DjiG+la7HwL+FjijputJkgpioSFJ2hv4GrBGQ9c/CfhL4PmGri9JaiELDUkaXEPAx4DP0vwuhFcD++DshiQNDAsNSRpMk4ATgGP7eM9rgd1wZUOSBoLnaEjS4Bmi/0UGwHbAaSP3lyR1nIWGJA2ev6f/Rcao9wB/lXRvSVIf2TolSYNlX+C75K4qPE8cAHhXYgZJUsNc0ZCkwbEqcCL5rUtLAccnZ5AkNcxCQ5IGx78Dq2eHGHEAsFV2CElScyw0JGkwbAscnh1iPkPAR7JDSJKa44yGJA2Gi4E9s0MsYBawFvBodhBJUv1c0ZCk7tsCeHt2iIWYBrw3O4QkqRkWGpLUfceRPwA+liOyA0iSmmHrlCR12xLAA8Aq2UEWYVPgtuwQkqR6uaIhSd12JO0uMsBVDUnqJFc0JKnbbgc2yg6xGPcD6wJzsoNIkurjioYkddergA2zQ4zDmsAu2SEkSfWy0JCk7jqS9g6BL+jI7ACSpHrZOiVJ3fUrYLPsEOP0DPBq4NnsIJKkeriiIUndtC3lFBkAywHvzg4hSaqPhYYkddMx2QEqsH1KkjrE1ilJ6p6liLMzVsgO0qO5xO5T92UHkSRNnCsaktQ9B1JekQHxNem92SEkSfWw0JCk7imxbWrUjOwAkqR62DolSd3yGuAuyn6Q9Gbg59khJEkTU/IXIknSKx1D+Z/bHQqXpA5wRUOSumMScA+wTnaQCXoIWAuYnR1EklRd6U+9JEnzvI3yiwyA1YA9s0NIkibGQkOSuqPkIfAFHZUdQJI0MbZOSVI3rATcDyyZHaQmLwCvBp7MDiJJqsYVDUnqhsPpTpEB8d9yYHYISVJ1FhqS1A1dapsa5e5TklQwW6ckqXxbAL/IDtGAYeB1wO+yg0iSeueKhiSV79jsAA0ZAo7IDiFJqsYVDUkq21RiCHyV7CANuQvYkFjdkCQVxBUNSSrbu+hukQHROrV9dghJUu8sNCSpbF0cAl+QQ+GSVCBbpySpXGsCfwAmZwdp2BPEmRqzsoNIksbPFQ1JKtcxdL/IAFgR2Dc7hCSpNxYaklSmIWBGdog+sn1Kkgpj65QklWlX4MrsEH00G1gLeCg7iCRpfFzRkKQyDcIQ+PymAAdnh5AkjZ8rGpJUnunAn4Cls4P02Q3ANtkhJEnj44qGJJXnUAavyADYGtgsO4QkaXwsNCSpPIPWNjW/w7IDSJLGx9YpSSrLRsDt2SES3Q+sC8zJDiJJWjRXNCSpLMdmB0i2JrHjliSp5Sw0JKkcU4AjskO0gGdqSFIBLDQkqRz7AKtnh2iBA4Fls0NIkhbNQkOSyjHIQ+DzWwZ4d3YISdKiWWhIUhlWA/bODtEitk9JUstZaEhSGWYAS2SHaJHdgbWyQ0iSxmahIUllODo7QMtMwjM1JKnVLDQkqf22BzbJDtFCM7IDSJLGZqEhSe3nEPjCbQq8OTuEJGnhLDQkqd2WAQ7JDtFiDoVLUktZaEhSux0ITM8O0WKH4ZC8JLWShYYktZttU4v2KmDP7BCSpFey0JCk9noNsHN2iALYPiVJLWShIUnt9X5gKDtEAfYDVsgOIUl6OQsNSWqnScBR2SEKsSRwUHYISdLLWWhIUjvtCaydHaIgtk9JUstYaEhSOzkE3psdgfWzQ0iS5rHQkKT2WZmYO9D4DQFHZIeQJM1joSFJ7XMEMC07RIGOxOF5SWoNCw1Jap+jswMUan3gLdkhJEnBQkOS2mVL4I3ZIQrmULgktYSFhiS1i0PgE3MosFR2CEmShYYktck04o2yqlse2Cc7hCTJQkOS2uQAYscpTYztU5LUAhYaktQetk3VY29gtewQkjToLDQkqR3WAnbLDtERU4BDskNI0qCz0JCkdngfMDk7RIfYPiVJyYaGh4ezM0jSoBsC7iTOgVB9NgduzQ4hSYPKFQ1JyvdWLDKacHh2AEkaZBYakpTPIfBmHIntaJKUxkJDknItT2xrq/qtSawWSZISWGhIUq73Aktnh+gwh8IlKYnD4JKU6zpgm+wQHfYssDowMzuIJA0aVzQkKc/rscho2jLAu7NDSNIgstCQpDzvyw4wIGyfkqQEtk5JUo4pwL1EW4+aNRdYj/j/LUnqE1c0JCnHfpRbZJT2hGoScFh2CEkaNBYakpSj1LMzHgKuzw5RwVHZASRp0FhoSFL/rQ7slR2iopOBU7NDVLApsGV2CEkaJBYaktR/RxMzGiU6BTgLmJUdpAKHwiWpjyw0JKn/ZmQHqOinwG3A48BFyVmqOAxYIjuEJA0KCw1J6q8dgY2zQ1R00nw/Pi0tRXWrUm7LmiQVx0JDkvqr1CHwZ4Fz5vv5RcCjSVkmwvYpSeoTCw1J6p9lgIOyQ1R0DvDMfD9/iZjVKM2+wArZISRpEFhoSFL/HAwslx2iopMW8msltk8tSfw5SJIaZqEhSf1TatvUncBPFvLr1wO39zlLHWyfkqQ+sNCQpP7YgBgEL9HJjH0a+Ol9zFGXHYENs0NIUtdZaEhSfxwDDGWHqGAui26ROm3kY0pzWHYASeo6Cw1Jat5k4IjsEBVdDNy7iN//I/CjPmWp0wzKLPwkqRgWGpLUvL2AtbNDVLSwIfAFlTgUvh6wQ3YISeoyCw1Jal6pQ+CPAReM4+POBWY2nKUJDoVLUoMsNCSpWSsD+2SHqOg0YNY4Pm4m8N2GszThEGCp7BCS1FUWGpLUrKOAadkhKjq5h48tsX1qeeIAP0lSAyw0JKlZM7IDVHQj8IsePv4y4L6GsjTJ9ilJaoiFhiQ1Z2vgDdkhKhrPEPj85gJnNhGkYXsBq2WHkKQustCQpOaUOgT+AtWKhlPqDtIHU4BDs0NIUhdZaEhSM5ak3Dew3waeqPC6XwO31JylH2yfkqQGWGhIUjPeA6yYHaKiXtum5lfiUPiWwObZISSpayw0JKkZpbZN3QtcOYHXnw7MrilLPx2eHUCSusZCQ5Lqtx7w1uwQFX0DmDOB1z8MXFpTln46EpicHUKSusRCQ5LqdzRlfn4dBk6t4Toltk+tAeyWHUKSuqTEL4SS1GZDlDtc/EPgdzVc53zgyRqu02+l/rlJUitZaEhSvXYHXpsdoqKJDIHP7wXgWzVdq58OAJbNDiFJXWGhIUn1KnUI/CliJaIuJbZPLUMUG5KkGlhoSFJ9lgfelR2iojOA52q83tXU04bVb7ZPSVJNLDQkqT6HA0tnh6iorrapUcPAN2u+Zj/sBqydHUKSusBCQ5LqU2rb1K3ADQ1c91Si4CjJJDxTQ5JqYaEhSfXYDNgqO0RF32jouncB1zZ07SYdlR1AkrrAQkOS6vH+7AAVvUic5t2UEofCN6HcolGSWsNCQ5ImbirltttcADzS4PXPAmY1eP2mOBQuSRNkoSFJE7cfsGp2iIrqHgJf0BPAhQ3fownvBZbIDiFJJbPQkKSJK3UI/EHgkj7cp8T2qVWBvbNDSFLJLDQkaWLWBPbMDlHRScDsPtzn+zTbntUU26ckaQIsNCRpYmYAk7NDVHRqn+7zEnB2n+5Vp/2AlbNDSFKpLDQkaWJKfep9NXB7H+9XYvvUVODA7BCSVCoLDUmqbmdg4+wQFTU9BL6g64Ff9/medSi1kJSkdBYaklRdqUPgM4FvJdz3jIR7TtQOwIbZISSpRBYaklTNspTbVnM28EzCfU8B5iTcd6IOyw4gSSWy0JCkag4lio0S9bttatT9wI+S7j0RM4Ch7BCSVBoLDUmqptS2qd8C1yTev8Sh8PWAHbNDSFJpLDQkqXcbAttnh6joG8Bw4v3PJWZESuNQuCT1yEJDknr3PspspZlN/orCs8D5yRmqOARYKjuEJJXEQkOSejOFcp9uXww8kB2C/GKniunAvtkhJKkkFhqS1Ju9gTWyQ1SUNQS+oMuB+7JDVFBqgSlJKSw0JKk3pQ6BPwZclB1ixFzgzOwQFewFrJ4dQpJKYaEhSeP3KmCf7BAVnQLMyg4xn1OyA1QwhdjWWJI0DhYakjR+RwJLZIeoqG1v7H8N/Dw7RAW2T0nSOFloSNL4HZUdoKLrgV9mh1iIEofC3wxsnh1CkkpgoSFJ47MtsEV2iIraMgS+oG8CL2WHqOCI7ACSVAILDUkan1KHwJ8HzsoOMYaHgUuzQ1RwBDA5O4QktZ2FhiQt3lLEgW0lOg94MjvEIpTYPrUGsHt2CElqOwsNSVq8A4EVskNU1Na2qVHfpd2F0FgcCpekxbDQkKTFK7Vt6vfAVckZFucF4FvZISo4AFguO4QktZmFhiQt2muAXbJDVHQScThe25XYPrU0UWxIksZgoSFJi3YMZX6unEv7zs4Yy9XA77JDVGD7lCQtQolfPCWpXyYBM7JDVHQ58IfsEOM0DJyeHaKCtwJrZ4eQpLay0JCksb0NWCc7REVtHwJf0GlEwVGSSXimhiSNyUJDksZW6hD4k8RuTiW5C/hZdogKjs4OIEltZaEhSQu3ErB/doiKTicO6itNiUPhGwJbZ4eQpDay0JCkhTsMWDI7REWltU2NOhuYlR2iAofCJWkhLDQkaeFKbZv6FXBzdoiKngAuyA5RwWHA1OwQktQ2FhqS9EqbA2/ODlHR17MDTFCJ7VMrA3tnh5CktrHQkKRXOjY7QEUvAmdkh5ig7wMPZYeowPYpSVqAhYYkvdxUohWmRN8FHskOMUGzgXOyQ1SwL7GyIUkaYaEhSS/3LmCV7BAVlToEvqAS26emAgdlh5CkNrHQkKSXK3UI/H7g0uwQNbkBuDU7RAW2T0nSfCw0JGmeNYnTwEt0MjAnO0SNSpw1eQuwUXYISWoLCw1JmucYYHJ2iAqGiUKjS06lzMKp1PkeSaqdhYYkhSFgRnaIin4M3JUdomb3A1dlh6hgBvF3SZIGnoWGJIVdgNdlh6ioK0PgCypxKHxdYKfsEJLUBhYakhRKHQKfCZyXHaIh3yL++0rjULgkYaEhSQDTgQOzQ1R0JmW+GR+PZ4Hzs0NUcDCwVHYIScpmoSFJcCiwdHaIirraNjWqxPap6cB+2SEkKZuFhiSV2zZ1B3BtdoiGXQ7clx2iAtunJA08Cw1Jg24jYLvsEBV9ndjatsvmUuaZGnsCq2eHkKRMFhqSBt2x2QEqmg2cnh2iT07JDlDBFOC92SEkKZOFhqRBNgU4IjtERRcBf8oO0Se/AW7ODlGB7VOSBpqFhqRB9k7KbW/p+hD4gkocCn8TsEV2CEnKYqEhaZCVOgT+MPD97BB9dgbwUnaICkpdMZOkCbPQkDSoVgPekR2iolMp8033RDwMXJIdooLDgcnZISQpg4WGpEF1FLBEdoiKBq1talSJ7VNrAHtkh5CkDBYakgbV0dkBKrqWGI4eRN8DnswOUYFD4ZIG0pTsAJKUYHtg0+wQFQ3qagbAC8C5wAeyg/To3cBywDPZQRZiU2AXYEtgQ2BN4mTzycBTwKPAXcAtwJXATcCclKSSijM0PNz1s54k6RVOpLw3qwDPE604JT7Vr8tOwI+zQ1RwDHBydogRrwY+SJzzsWGPr30COA84Abix5lySOsZCQ9KgWQp4AFghO0gFpwIzskMkGwLuBNbPDtKjK4DdkzO8GvgMMZ80rYbrXQX8L6KdT5JewRkNSYPmYMosMmCw26ZGDVPmiehvBdZLuvcQ8GHgDmIlr44iA2BX4BpipabUf1OSGmShIWnQlHp2xj3Aj7JDtMRpRMFRkiHgsIT7rkScufJFYk6kbkPEKtstwHYNXF9SwSw0JA2S1wA7Z4eo6BuU9+a6KXcTT9JL0++2t9cS/5/26sO91iXaww7sw70kFcJCQ9IgeT/xBLY0c4n5DM1T4pkaGwLb9OleaxNv/Dfq0/0g5p/OIobMJclCQ9LAmEQMwZboUuCP2SFa5ixiF67S9ONMjZWIImPdPtxrQZOBU/CQQklYaEgaHHsST3lL5BD4Kz0FXJQdooLDqG8Ye2EmEcPyr2vwHouzBFEIZhQ6klrEQkPSoCh1CPxx4LvZIVqqxPaplWh2ZuIvgb0bvP54rUysbJTYqiipJhYakgbBysB+2SEqOh2YlR2ipb4PPJQdooKm2qfWBP6loWtXsQvlFviSamChIWkQHEGz7SpNsm1qbLOBs7NDVLAvUfzW7X/TzBa2E/FPxJC4pAFkoSFpEBydHaCim4nzCTS2EtunphIHR9ZpLdq5erAGsdubpAFkoSGp694MvDE7REWuZizejcCt2SEqqLt96v1EAdNGH8JZDWkgWWhI6ro2PuUdjxeJnXu0eN/MDlDB9tR3xsXo6dxttQlR8EsaMBYakrpsKnBodoiKvgM8mh2iEKcBc7JDVHB4Tdd5A3HqfZvtkx1AUv9ZaEjqsgOAVbJDVGTb1PjdD1yZHaKCo6jn6/A7a7hG03bPDiCp/yw0JHVZqW1T9wGXZ4coTIlD4esCO9VwnXfUcI2mvQnfc0gDx3/0krpqLcp9inoSZbYCZToPmJkdooKJDoWvDGxbR5CGLUuc8yFpgFhoSOqq9wGTs0NUMEycqKzePEvMtZTmIGDpCbx+L8r5e/7q7ACS+stCQ1IXDRH97yW6Crg7O0ShSmyfms7ETq3fu64gfbBCdgBJ/WWhIamL3gqsnx2iIofAq/shcG92iAqqtk9NJlY0SuFZGtKAsdCQ1EWlDoE/TcwaqJq5wBnZISp4O7B6hddtS8xolOK57ACS+stCQ1LXLE9sa1uiM/HN2ESdmh2gginAYRVeV8JuU/N7MDuApP6y0JDUNe9lYsO1mWybmrjfADdlh6igSvtUSYXGi5TZ1iZpAiw0JHVNqW1TtwPXZYfoiBKHwt8IbNHDx68x8ppS3AK8kB1CUn9ZaEjqktcD22SHqOhr2QE65AzgpewQFfSyqvFOyhqutoiWBpCFhqQueV92gIpmA9/MDtEhjwCXZIeo4EhiXmM8StrWFuDH2QEk9Z+FhqSuqDpQ2wYX4KBs3Upsn1qN8Z1mPxXYo+EsdXoJuCw7hKT+s9CQ1BX7UW2L0DZwCLx+3wOezA5RwXjap3YGlms6SI1+AjyVHUJS/413iVZSs1Yj3jxsBrwOWAVYCZgJPE/s1nI30ed8A26BujClDoE/BFycHaKDXgDOAY7LDtKjA4gtmhf1xryk3aYAvp8dQFIOCw0pz+rA4SPf3sj4BzufJ/rPzwC+Q/T3D7rVgD2zQ1R0MmUOLpfgNMorNJYiio1FrXK9s09Z6nJRdgBJOYaGh4ezM0iDZm3gk8QT+GkTvNZ9wGeBE4E5E7xWyT4OHJ8doqJNgduyQ3TUEHAnsH52kB5dCew2xu+9lljdLMU9RGZJA8gZDal/phBviG8D/oKJFxkAawFfBm4Gdq3heqWakR2gomuwyGjSMHB6dogKdgVeM8bv7dPHHHWwbUoaYBYaUn+sTTylPB5YpoHrbwFcAZwALNvA9dtsB2CT7BAVOQTevJOJgqMkQ4y9g1pp8xm2TUkDzNYpqXmbE8O+a/Tpfr8n2rKu6tP9sn0NeH92iAqeJf5OPJ0dZAD8hChIS3InsBEvL5KWAR4FlkxJ1LvniY0t3LxCGlCuaEjN2h74Kf0rMgDWA34I/BvlvCGpahng4OwQFZ2LRUa/lHimxga88pT73Snr3/QVWGRIA81CQ2rO64ELydnvfhLw/wI3Alsm3L9fDqas8wTmZ9tU/5xFPF0vzYJnapTWNuV8hjTgbJ2SmrEscd7FxtlBiO1v/y/wD8CLyVnq9mNgp+wQFfyOOC9lkD4Br0O0L21J7EK0BrFBwjTizIhHiMH4XxBtfw/VfP9zgINqvmbTHif+P80a+fnvgXXT0vTuNURmSQPKQkNqxqmM74TffrqJ2J3p19lBarIBcAfjP3+kTT5FbEvcdasS8zMHA2/q4XXDxN/X04BvAo/VkGVf4rTw0rwbOJ/Y8OEXyVl68WviAFJJA8zWKal+uwBHZIdYiC2JVqqPA5OTs9ThGMosMuZS5sxAL1Yntl3+I/Cv9FZkQPy5bgV8kXgi/m/EUPFE/ID6V0n6YfSBhW1TkopjoSHVaxLw37T3DfCSxBa7V1HeIWbzm0w7i7nxuBi4NztEQyYBHwXuAv4f6hlcXpaYN7oT+CuqF8mziVmN0uxDFFkWGpKKY6Eh1es9xBB42+0I/IpY3Sjx88BexNkkJerqEPiriN3O/oNmzopZAfhP4Dpg64rXKHElaSpwNLGDXSmeJnbbkzTgSnyDIbXZR7ID9GApYnXjEsp7035MdoCKHgMuyA7RgE2B6+nP6fRbAtcSK4cr9Pjam4gCuzTHEYPzpbgEeCk7hKR8FhpSfTYA3pIdooI9gF8CR2UHGaeViXaSEp3GvB2EumJjYiWjn7shTQI+BNxNvAnvpVXxm40katYG2QF6ZNuUJMBCQ6rT/rR3NmNxVgBOAS6iv4cLVnEUsSVqiU7ODlCzVwOXE8PfGVYCTiBmjsbbsngaMKepQGIuMYckSRYaUo32yA5Qg3cAtwAHZAdZhBnZASq6kbK2J12cqcR2sWtmBwF2Bm4mtgxeejEf+wBwZeOJBtdNwIPZISS1g4WGVJ+tsgPUZFXgPOKAs5WTsyxoa+AN2SEq6toQ+D/Srr/zU4H/BfwWOHAxH1viUHgpbJuS9GcWGlI9Vqd9b8on6iDiCfxe2UHmc3h2gIpeAM7MDlGjNwIfyw4xhjWBc4lD7saaGzkPmNm3RIPFQkPSn1loSPVYKztAQ9YkDjo7FVguOQvEidofBe7LDtKjbwNPZIeo0edp/y5I+wO3AZ/mlTM9zxJ/JqrXI0SLoCQBFhpSXVbKDtCwI4nZjZ2TczxLnBa9PjGr8dvcOOPWpbap7YC3ZYcYp6WIFq+bgV0W+D3bp+r3fWIYXJIACw2pLoPwb+m1xBDt/6WeE58n4kVilWUTYD9iALWt7qNbw8cfzg5QwabEn8EpxMGCAFfQ3RPas9g2JellBuHNkdQPg3I41STgb4knxG0YBJ5LHIC3NVFwXJsbZ6G+Tne2U10WeHd2iIqGiK2R7yAO1hyizDM12mo2cGl2CEntYqEh1ePh7AB9tgnwM+Jk8anJWQCGiYJje2An4MLcOH82TLdadN5B/mrWRK0AfAG4BucJ6vRT4MnsEJLaxUJDqscfswMkmAJ8nCg4NkvOMr+fAPsCbyb/cLYriNOru+Kt2QFqtA2xhfOj2UE6wrYpSa9goSHV4yng99khkryZaKX6NDA5N8rL/JxolXkDUXDMTsjQpSFwgG2zA9RsErBKdoiOsNCQ9ApDw8PD2RmkrjgTODQ7RLJriN2g7soOshDrAX8DfIDYjahpTwFrAM/14V79MhNYJjuEWudeYJ3sEJLaxxUNqT4/yA7QAm8Bfkm0VLXt88vviSHg9YDPEIVAk86gW0XGKlhkaOHaMhMlqWXa9kZAKtmFxLarg24pYkj8EmDt5CwL8zDR5rUO8Ang8Ybu07W2qenZAdRatk1JWigLDak+jwPfyg7RInsAtwLHZQcZw9PA54B1idPG76/x2rcCN9R4vTZYIjuAWukFYtMDSXoFCw2pXl/IDtAy04ETgPOB1ZKzjGUmcdr4a6nvtPFv1HCNtulSG5jqcxX+3ZA0BgsNqV43AN/JDtFC+wO3A0dkB1mEBU8bv3kC1zm9rlAt8lh2ALXSRdkBJLWXhYZUv4/jE76FWYHYZvabwErJWRZl9LTxrah22vgFwCN1h2qB54AHs0OoddwEQ9KYLDSk+t0JfCo7RIsdBvwK2Ds7yGJUPW28a0Pg87s1O4Ba5Xa6dSClpJpZaEjN+CJx6rAWbg1ip5pTgeWSs4zHgqeNzx3j4x4kdtvqqp9mB1Cr2DYlaZEsNKRmDAPvB27MDtJyRwK/AHbJDjJOiztt/KSF/FqXXJodQK3itraSFsmTwaVmrQhcBmyZHaTl5hKrQJ8Cnk/O0ov1ePlp45sQ7SRdNUSc+v7a7CBK9wxxiKNnB0kakysaUrOeAHYFvpuco+0mEW/YfwXsmJylF78nThvfAPhrul1kQKzUnZodQq1wGRYZkhbDFQ2pPyYBfw/8b2BKcpa2m02cLP5P+EamjVYmCqxlk3Mo17HA17NDSGo3VzSk/pgL/B+iheqXyVnabgpRlN0EvCk5i17pMeC/skMo1TBwcXYISe1noSH11y+BbYHPAXOSs7TdZsB1wKeByblRtIB/Bu7NDqE0Pwfuzw4hqf0sNKT+ewH4BLAzceaGxrYE8I/EtqobJWfRPM8SrTNjbfOrbnNbW0njYqEh5bkGeCPwJaIVQWPblniK+nH8vNUWlwKfzQ6hFG5rK2lcHAaX2uHtxGDlWtlBCvBTYAaeSNwGQ8A3gKOTc6h/HgVWx9ZPSePgk0GpHS4lZhJOzA5SgB2Am4HjsoOIYeLP4ZzsIOqbi7HIkDROFhpSezwFfBDYB/hTcpa2mw6cAPwAWDM5y6B7CXgv8O/6Dc48AAAgAElEQVTYAjgIbJuSNG62Tknt9CrgK8C7s4MU4Engw8Bp2UHE24BTgFdnB1Ej5gCrEVscS9JiuaIhtdPDwAHAwcDjyVnabgXitOpzgFWSswy6y4izT87ODqJG/AyLDEk9sNCQ2u1cYnbjwuwgBTgIuBXYPzvIgHsIOBR4K3BbchbVy7YpST2x0JDa70/AfsT8xszkLG23GnA+sbqxYnKWQXcV8Abgo8S5Gyqf52dI6okzGlJZXgOcBOySHaQAfwDeB1yRHUS8FvhP4B3ZQVTZfcA6OPAvqQeuaEhluYdoSfkg8FxylrZbF7ic2J1qmeQsg+53wDuJlbk/JmdRNd/HIkNSjyw0pPIME+dtbA3cmJyl7YaIcx5+CeyUnEVwAbAJ8BngxeQs6o3zGZJ6ZuuUVLYlgL8HPglMSc7SdrOBzwOfJs5+UK4tgC8TBzCq3WYBqwLPZAeRVBYLDakMKwBLj3xbnmgFWhpYbuTbxsAM4vwNLdp1xNbBD2QHEUPAkcD/R7yRVTtdCuyZHUJSeSw0pHotSRQA8xcG04liYClgWaJQWHrk5yvO9+PlR35/6ZHvp893DdXrfmIw+ZfZQQTEv4NPA3+FLb1t9DfAF7JDSCqPhYYG2Xjf5C9uNWHpkV9bgXhCqzI8AewB3JwdRH+2FfA/I9+rPTYE7swOIak8FhoqxejT/yXn+/GCPx/rxwv7veXxyangQWKo/r7sIPqzKcBHiBWOZXOjCLgbeF12CEllstBQnYaov2XIVQI17XpgRxwQb5s1gOOJGQ7l+QLROlWX7xObWDwx8vOngLnA08Ac4lDSl4hDHl8EngdeGPn2/MivPTvyMTNHXvP0yDWeqjGnpBpYaAyuuluGlhr5JpXoM8QTdLXP3sRhf+tnBxlQbwcuq+laqwCP1HStxRktTOr+flHXHi2aJI2w0Gi/SYzvTf54BpBHP27Fvv4XSO33ErAZ8NvsIFqopYD/BXwMmJacZZA8C6xMbG9bhzcCP6/pWm3WZDEz1vejK0FSq1ho1K/X+QFnCaR2OA84MDuEFul1wH/hVqv9cj7w7hqvty/wvRqvp1dqoohZ3PejP5ZeYVAP+BpdJViWeFO/HBNrGRp9jaRyHUCcR3J7dhCN6S5gL+IN638Da+fG6by6TwNfq+br6ZWWHPmWJaNlbXS+Ry1USqFRxy5D8//YAWNJCxoCPgR8ODuIFusC4MfA/wH+EpicG6ezLqn5ehYa3ZdZ6PSzVW30+9FNCzSGfrZOTQU2H/m2JrAasSow1mrCUrhKIKm/HgVWx6djJXkzcfbGNtlBOuYXxExFnU7FXcTUTf1sVSuqZa3pFY3pwKFEj+dbcYhPUrutAmwP/CQ7iMbtZuLP7Djgs7jZRV0uauCarmioqzJXcp4nRgLmAo8DjxEbA8wBHgYeAH5FbMRwPX3eNKCpFY1VgE8C7yeKDUkqxaeIN6wqz0rAvwIfwPbYidoR+GnN17wTD/+TMj0DXA6cQWzM0HjbV92FxhDw10Tf7PJ1XliS+qTunXbUf7sAXwY2zQ5SqMeJ9ubZNV5ziOhn97wlqR0eAb5InFP0dFM3qXPb1FWAi4nQFhmSSvXa7ACasB8BbwA+SjzBU28upt4iA+I9gkWG1B6rAv8M3AN8kIaOUqjroq8DriFOEJWkkq2THUC1mE08+NoEOC05S2nq3tYWnM+Q2mol4CvETn61f/2ro9BYi+j32qCGa0lStqWzA6hW9wNHAfsBv8+NUoQ51L+tLXjmidR2OxAD47UuGky00FiW+IS0bg1ZJKkNSjlfSL25gJjZ+AwwKzlLm11PbPNcN1c0pPZbifhceWhdF5xoofEVHLaT1C2NDcUp3fPAp4E3AVelJmmvJtqmwEJDKsVU4JvAgXVcbCKFxr7A4XWEkKQWaeJprtrlNuJsp4OBh5KztE1ThYatU1I5JhGzbTvWcaEqlgD+Y6I3l6QWuiM7gPrmXGBjYivcuclZ2uBPRI92E1zRkMqyJHAWsWNcZVULjcOA9SdyY0lqqVuzA6ivngT+EtgOuCk5S7bvA42c4osrGlKJ1iQexFRWtdD48ERuKkktdmV2AKW4AdiWOHT2qeQsWZpqmxoi3rBIKs9BTGAnqiong2+IrQWSumkWsevGc9lBlGp14PPAEcSb5EHwInGAVxObIawKPNzAdSX1x43A1lVeWGVFY/8qN5KkApyPRYbgQeLsjT0YnAdrV9Pcjmu2TUll2wrYucoLqxQaE55Al6SWOiE7gFrlCmBz4KPAzOQsTWuqbQosNKQu+ECVF1UpNN5c5UaS1HJ34XyGXukl4IvAFsBFyVma1OR/mztOSeXbF5jW64t6LTSmAmv0ehNJKsBfZgdQq90D7APsB/whOUvd7qbZFjELDal8yxMtVD3ptdBYtcJrJKntbgIuzQ6hIlwAvB74N2K1owsuaPj6tk5J3bBNry+osqIhSV0yBze5UG+eBT4GbAZcnpylDqc1fH1XNKRu2KjXF7g6IWnQfRK4PzuEivRbYn/5Y4BHkrNUdSNwc8P3cEVD6oaez8PptdB4tNcbSFKL/ZA4L0Gqahg4mThj6kvECllJPtvw9T2sT+qOpXt9Qa+FxjN0f4s/SYPhLuCd2SHUGU8CHyG2gL8lOct43UicHdOkVamwU42kbqjSOvWb2lNIUn/dS7whnJUdRJ1zLbAl8EGaOwCvDrOBvyBWZJpk25TUHY/3+oIqhcbPK7xGktri18DWwEPZQdRZc4ETgU2Ac5KzjOWzxG5rTXMQXOqOnucZqxQaV1V4jSS1waXADlhkqD8eAA4B9gTuTM4yv4uBz/TpXq5oSN3xi15fUKXQ+AHd2Ttc0uA4kZjJeCo7iAbOpcTZG58AXkjOcj1wMLHq0g+uaEjdcV2vL6hSaDxFPA2RpBLMId7gfZDoS5cyvAR8DtgcuCQpw8+AvYmNXfrFFQ2pG+6hwpx21XM0Tqj4Oknqp5nAAcQbPKkN7gL2IlYV/tTH+54N7E6FYc4JckVD6oazq7yoaqHxA+DWiq+VpH54ANgV+F5yDmlhziVO2f13mj174xngWOBQ4PkG7zMWVzSk8s0h2o97VrXQmAv8Q8XXSlLTfglsR3921ZGqegb4O+B1wBnUW3DMAU4hipmv13jdXgwBayTdW1J9ziRap3o2NDw8oS20LwXeNpELSFLNLiZ2+mnzGQbSwqwA/A1wDNFyNFThGo8Rbwq+ANxdX7RKVgMeTM4gaWKeJ7bq/kOVF0+00Hgt8eRwmYlcRJJq8iXgb2m2FUXqh+WIguMdwKbAq1j4CdtPALcDPwWuAC6nPTtDbgXckB1C0oT8HdHiWclECw2Ivs8zJ3oRSa/wAvEk4QXizcRYP34ReDuwRU7MVpgDfBT4r+wgUoNWHPk2jTjV/nHgydREi/Yu4DvZISRV9gNiW/jKxcKUGkKcBWxDLPdKg2g20Wv9NFEAPEt88X9u5OdPjvza8yMf88zI7z1LbBc9+nFPjPz4Ocbf9rMy8G0Gu8iYSTzwuCg7iNSwJ0a+lcJBcKlcvwYOZwJFBtRTaEAsq6xALPNKbTbeVYJF/d6CP876wv864s31hkn3b4P7gX2AW7KDSHoFt7aVynQnsCc1vL+pq9AYBo4jBteOrumaGmwvEU+qn2beU/7RN/bPESsBz478uJfVhK7YDTiPKPAH1fXA/jhsKrWVhYZUnpuI2bCH67hYXYUGRPvI+4D7gE9RbbcMlanulqGZtGeYsY2OAb4CTM0OkujbwJHE3xlJ7XQH8W91OvGeYPTByIoj3y9PbLM/HZjc93SSFnQh0S5V24PZOobBF+adwMnAKk1cXJW9yPje5D9Hb6sJ6o8h4B9Hvg2yLxEzYXOzg0iq3VLAkhP4vso1lgWWaPy/TGqvYeDzwCep+WtrU4UGxHDqlcBKTd2g46q2DI1+3MJWE2b39b9AdVoS+Abw3uwgiWYDHwb+JzuIpE5qoojppUCSMswkxh7Oa+LiTRYaEP94zgH2bfImBZpD7NZ1MmOvJkijViG2iNwxO0iiJ4ADiXMCJKmLmixixvq90fY1DaZ7gXcTcxmNaLrQGHUc8N/UOxPSBd8k/t/YZ66xvJ7omVwvOUeme4h2zNuyg0hSR9myNnh+AryHmoa+x9KvQgPiaey5wOr9umEhfk78Qd+THUSt8zbi38zy2UESXUvsLNXoJ0JJUpp+tKytCKyDD7xHnQj8FX3YeKefhQbAmsC3gO36edMCPEYcOHZ5dhC1xrHAlxnspz3nAjOIOSNJkqo4GDgJWDo7SAvMBv4W+M9+3bDffXn3A7sCX+3zfdtuZeBi4OO4LfCgGwI+TfwbGeQi40tE8W2RIUmqYoh4X3UWFhkAjwJvp49FBvR/RWN+RxFnASyVFaClzgbeT+wYpcGyDDG3s392kEQvAh8ATs0OIkkq1rLAacC7soO0xC+J9xa/7/eNMwsNgC2J7bTWzQzRQrcTuwDcnh1EffNq4HvAVtlBEj1OzCtdlZxDklSu9YHvEpupKNqQjyHpAXb2lmY3AVvjlpUL2hi4jsF+sj1INieGnge5yLgb2AGLDElSdTsDP8MiA+IQvs8RbchpXTLZhQbAI8CexP8MzTOdODvheNrx56Rm7ElsMbdOdpBE1wDb4wqeJKm644hNdVbNDtICM4kOgU9Q80nfvcpunVrQYcQQrEM7L3chcCRx2re6w/NlYibpaOCF5BySpDJNI3ZpfF92kJb4HdERc2t2EGhfoQHwRuDbwGuyg7TMncTcxq+zg2jCJgH/AXw4O0iiYeAfgH8Z+bEkSb1alZhB2CU7SEtcDRxIi86eamNLzi3E3Mal2UFaZgOij/892UE0IUPEKsYgFxmziBW6f8YiQ5JUzRuBG7DIGHUisDstKjKgnYUGxAF27yDmNnwjMs+yROV+PDA5OYuq+TzwF9khEj0C7EZs4ytJUhWHAD/FXUshtoU/FvggfTjpu1dtbJ1a0H7EXsjTs4O0zMXA4cSWoCrD4cDp2SES3QbsQ/SPSpLUqyHgH4nWWw84jkP4DqLFOzaWUGgAbETswLRJdpCW+SPRSnVjdhAt1rrAr4DlsoMk+SHRN+qGBpKkKpYjHjy79X+4hTiQ8A/ZQRalra1TC7oD2I4oNjTPOsTgz9HJObR4X2Fwi4yvAXtjkSFJquZ1xJyqRUY4hzh7qtVFBpRTaAA8TUv2BG6ZJYGTgBOAJZKzaOHeBuyVHSLBMPAZ4AO0sG9UklSEtwPXA5tmB2mB0a+rhwLPJWcZl1Japxb0DmKYdIXsIC3zY+Bg4KHsIHqZ0QPpBslzwFHAedlBJEnF8rypeWYSOzaenx2kF6UWGhDbvX4b2Cw7SMvcR/TCX5cdRAC8geijHCQPEps43JAdRJJUpGnA/wDHZAdpibuJtrHizlIrqXVqQXcST4nPzQ7SMmsBPyK2OlO+92cH6LNfEfNUFhmSpCrWIHZRssgIPybe7xZXZEDZhQbEMtIhwEeB2clZ2mQa8FVibmNqcpZBt292gD66DNiJAobTJEmt9CbgZ8QDK8UhfHsQZ1AVqeTWqQXtCpwNvCo5R9tcQ+yx/EB2kAG0IbFj2iD4H+K0cwt+SVIVhwLfAJbKDtICs4APEf8/ilb6isb8rgK2wpaNBb2FmBF4a3aQAbR1doA+GN0B40NYZEiSejcZOB44E4sMiNWLt9OBIgO6VWgA3AvsTGz3qnlWBS4FPp4dZMB0/YDJZ4nDgj6dnEOSVKbliDPSfH8SbiEemv84O0hdulZoALwAvA/4IO7dP78pxBOD04Glk7MMijWzAzToT8AuwPeyg0iSirQBsUPmIM0yLspZxCF8f8wOUqcuFhqjTgR2I7ba1DyHAz8B1kvOMQhWzA7QkFuItrCbsoNIkoq0F3EIX9dX/sdjtAX5MAo5hK8XXS40IN5Qb0UcW6953gTcSOxkoOZ08d/XBcTOUvdnB5EkFekjwIV46DLAM8C7iRbkzuzONL8uvhFa0P3EjlRfTc7RNisDFxN9kUPJWbpqVnaAmn2R+IQ4MzuIJKk404CTgS8QA+CD7i5iG9/vZgdp0iAUGhBv+I4DZgDPJ2dpk/l3elgmOUsXPZwdoCZziK1rPzryY0mSerEGMeA8IztIS1wCbAP8JjtI0wal0Bh1Kh4otjCHEK1UG2cH6Zgu/D17hhjU+8/sIJKkIm1HvMfYJjtIS5wI7AM8kR2kHwat0IAYYN0auCI7SMtsTOz+sH92kA75RXaACbqf2FnqB9lBJElFOox4v/Xq7CAtMAs4htgVdWDOnRrEQgPiMJQ9gc9lB2mZ6cR+1sczuH836nQ95bYa3UAU5D/PDiJJKs5oa/Y38RA+gAeIB3cnJ+fou6Hh4U4OuffiMGJQ3LMlXu5C4EjgyewghfspcTp7Sb4DHEEHt9mTJDVuOlFg7JMdpCV+Thxu26nzMcbLp9ZwBnFAyj3ZQVpmH+KJ/OuzgxTunOwAPfo34EAsMiRJvduQaMO2yAhn0sFD+HphoRFGDyC7NDtIy2wA/Ax4T3aQgp1OGdvcvkTszPYxYG5yFklSefYmigw3lom26U8QXTMDvduphcY8jwHvIOY2Br6fbD7LAecSvZbue927x4CTskMsxjPEsq5nzUiSqvAQvnmeJs6ccg4YZzTGsh9wGtFnqHkuBg4HHs8OUpi1gTto50DcPcQSd+f38pYk1W5J4ATgqOwgLXEnsXvnbdlB2sIVjYX7HrHfs39RXm4vYqhpq+wghbkX+JfsEAtxLbA9FhmSpN6tSRzCZ5ERLsb3jq9goTG2O4hDZr6THaRl1gGuxtM9e/V54sCitjgbeCvwUHYQSVJx3kJ8Tds6O0hLfInoDnCnzgVYaCza08Qg9CdwQHZ+SxJ7QZ8ALJEbpRgvEX+XHskOQnxCPAx4ITuIJKk4hwM/BFbPDtICs4CjiRmVUs/NapQzGuP3TmIHIQedXu7HwMH4ZHy8Rk/azpjXeJE4kfTkhHtLkso2mWgD/nh2kJZ4gBj6vj47SJtZaPRmA+DbwGbZQVrmPuLsheuygxRiL+A8+ntI5OPEispVfbynJKkbViJabvfIDtISo1v//yk7SNvZOtWbO4nh2XOzg7TMWsCPgGOzgxTiYmA34OE+3e9W4u/tVX26nySpOzYCrsEiY9QZwO5YZIyLhUbvZgKHAB8FZidnaZNpxDkMJwBTk7OU4Dpgc6KNqkmnAdsCv234PpKk7nkH8fVqo+wgLTB6CN/hDPghfL2wdWpidiWWEl+VnKNtrgEOIvoXtWiTiEGyzwKr1XjdO4C/Ay6q8ZqSVIolic+pk4nNXB4Bnk1NVJYh4GPE1yYfSkf78aHAZdlBSmOhMXFrE/32bvH2co8QKz9XZgcpxHLAccRK2VoTuM6twH8QKxkv1ZBLktpuMtEeujdxjsEbgVUW8nFPA78CbgAuIVp+fTL9SksSHQpHZAdpid8Sh/Ddnh2kRBYa9VgS+DJwTHaQlpkN/D3wuewgBZlMrJQdRJxzseFiPn4OUVxcRswO3QD4j1rSIFgb+AvgfVTbavUZ4Ezi6/cvasxVsrWI88M8mDf8AHgv8FR2kFJZaNTrOOC/8GyJBZ1ObKv6XHaQAq0MbAy8hlj1WIZ4Kvc0cDfRIvV0WjpJ6r9VgH8gvuZOq+F6w8SOkp9ksOfZdiA6NOps4y3VMHHQ7ifxHLUJsdCo347Ek2UPsnm5nwMHAL9PziFJKtfBwH/SzGzkC8A/Eavwg3b42geIB6Vu5hJ/D44jWpA1QRYazVgT+BawXXaQlnmMGKa6PDuIJKkoU4n5sw/14V4/JNplHunDvbJNAf4ZD+EbdT9xCN8N2UG6wkKjOdOIpy4fyA7SMnOATxFLkv7lkyQtztLA+cDb+njPO0fu94c+3rPfViZ2ztw9O0hLXEMcwvdgdpAusdBo3lHAV4ClsoO0zNnA+3G7QUnS2JYkBnJ3Tbj3H4m5hfsS7t20zYHvEvN/ilnSDxBtU6qReyM371RgJ7r9VKSKQ4AbiUFnSZIWNAR8g5wiA2Ad4PvA9KT7N+WdwE+wyIB5h/AdiUVGIyw0+uMm4pyNK7KDtMzGxImj+2cHkSS1zoeJWYlMmwNfS85QlyFiFuN7dK94quJxYC/cgr9Rtk71l0NXC+c2cpKk+W0C3Ey0TrXBYcSZG6VaBjiFmEFQbA2//8j3apCFRo7DiFM3l84O0jIXEsuXT2YHkSSluhjYMzvEfB4iDlAt8dyitYhh+i2zg7TE94n3YR7C1we2TuU4gxgwuyc7SMvsQ7RSvT47iCQpzR60q8iAOMTuI9khKtiRmIe0yIjuic8B+2KR0TeuaORamViK7eeWfSV4BjiGOKFUkjRYLqWdXxcfA9alnN0SjyO22fcQvhj0/gCxu5T6yBWNXI8BexMVthXfPMsRp6sfD0xOziJJ6p8NiBWNNloZOCA7xDhMAb4InIBFBsT2xDthkZHCQiPf6NZq76LM3s+mjO6OcSGwUnIWSVJ/HEx8/m+rw7IDLMbKxIrQh7ODtMRPga2I9jElsHWqXTYCvkPstqF5/kg8RbopO4gkqVHXE9vBt9UsYEXg+ewgC7EFMfTt+RjhROCvgRezgwwyVzTa5Q5gO+ITheZZhzhcaEZ2EElSY5YH3pwdYjGmEV+n2+ZA4BosMgBmE50iH8QiI52FRvs8TTy9/wSeKTG/JYGTiZ7TJXKjSJIa8BbKmMvbIjvAfEbbjM8mzsoYdI8RO5Z5CF9LWGi00+gWbPvhmRILOg64nNhqUJLUHTtmBxinDbMDjFgW+BaxcYrv5+BXRNvdFdlBNI9/MdvtImAb4NbsIC2zMzHYtW12EElSbXbKDjBOr8oOALwW+Bll7ILVDxcSharnk7WMhUb73QlsT2z3qnnWAn4EHJsdRJI0YdNo9xD4/JZLvv9ORJGxWXKONhjtANkfd+5sJQuNMswEDiHmNuYkZ2mTacBXca9wSSrd1sQsXgky5yePA35IO1ZVsj0LHIQzra1moVGO0ap9D+Dh5CxtcxxwJbBGdhBJUiWltE1BzsngU4hTvt0QJdwL7AKclx1Ei2ahUZ6riMNnbkjO0TZvAW4Bdk3OIUnqXUmFxh/6fL9VgMuAv+rzfdvqJ8T7IM/WKoCFRpnuJQaiT8oO0jKrEp+MP54dRJI0bpOIWcRS3NbHe72BeLC4ax/v2WYnArthZ0cxLDTK9QLwPuJAmpeSs7TJFGKrv9OApZOzSJIWb3NghewQPfhNn+5zMHEI33p9ul+bzQY+gu95imOhUb4Tgd2BB7ODtMwRxPLqesk5JEmLtnN2gB68CPyi4XuMHsJ3Fj4wgziE7+3Al7KDqHcWGt1wNdGveG12kJZ5E3Hexh7ZQSRJYyrloD6IrynPNXj9ZYFvEyvzQw3epxS/JN7fXJkdRNVYaHTH/UQP51eTc7TNysDFxNMhP2lLUvuUVGhc3eC11yceGL6rwXuU5Fxio5ffJ+fQBFhodMssYqvXGcQMh8Jk4unQGcAyyVkkSfOsT1lbkzdVaOxMHML3+oauX5LR7fwPJWcrYdXIQqObTiWeEP0xO0jLHEoM1q2fHUSSBJS1re1cohio23HA5cTOiYNuJvAePISvMyw0uusmoq/xiuwgLbMFcDOwf3YQSVJRhcatwOM1Xm8a8HU8hG/U74htjr+THUT1sdDotkeAPYklSM0znfhEdjz+G5CkTCUVGj+p8VqrApcQ29QrWtK2J4o5dYhvsrpvNrEEeTjN7pRRmtHtA79LWfu3S1JXrAZskB2iB3XNZ7yROIRvl5quV7rRbfo9hK+DLDQGxxnADsA92UFaZh/gOhzAk6R+K2k1A+CnNVzjkJHrrFvDtUr3IvABPISv0yw0BsstwNbAZdlBWmZDYsDvPdlBJGmAlLSt7T3AvRN4/RDwaeBMPIQP4FGitftr2UHULAuNwfMYsDcxtzGcnKVNliP27D6e2A5XktSsklY0JtI2tRwxF/iPeJ4TxMnqWwFXJedQH1hoDKY5xNzGu4Cnk7O0yejcxoXAislZJKnLpgNvyA7Rg6qFxuuIQ/jc6TCcQxzC94fsIOoPC43B9j1gG+C27CAtsxfRZrZldhBJ6qjtKWv1uEqh8XbgemDTmrOUaP5D+NyYZoBYaOgOYDvg/OwgLbMOsZXhjOwgktRBJbVNPQr8tsfXHAdchKvjEIfwHUB0UtiyPWAsNATRPjX6ScCTOOdZEjgZD1OSpLqVVGhczfjfIE8DvkF83ZjSWKJy3I0PMweahYZGjS5r7gc8mZylbY4DLif2fJckTcw0YgfEUoy3bWoN4EfAMQ1mKcmPiRa5X2cHUR4LDS3oImJuw9M5X25n4EZg2+wgklS4rYClskP0YDyFxpuIbdL9GhFOBPYAHskOolwWGlqYO4mnEN/KDtIyaxFPq47NDiJJBSupbWomsTnIohxKHMK3TvNxWm8W8H48hE8jLDQ0lpnAwcTcxpzkLG0yDfgq0X87NTmLJJWopIP6fgbMHuP3JhNnL51JWSs0TXmEOITvG9lB1B4WGlqU0bmNPYCHk7O0zXHAlcCrs4NIUkEmESvmpRirbWr0EL6P9zFLm91CtMT9KDuI2sVCQ+NxFfEJ5IbkHG3zFuKE012Tc0hSKTYDVsoO0YOFFRobANcB+/Y5S1udDewA/DE7iNrHQkPjdS8xEH1yco62WRW4DJ9qSdJ4lDSf8RJx4N789hr5tU36H6d1hoHPAO/FQ/g0BgsN9eIFYts+h7xebgrRp3sasHRyFklqs5IKjZt4+RvojwAXAivkxGmVZ4B3A5/GQ/i0CBYaquJEYHfgwewgLXMEcZr4esk5JKmtdsgO0IPRtqlpxGr+F4gB8EF3F3EI33ezg6j9LDRU1dXE3Ma12UFa5k3EeRt7ZAeRpJZ5LbFNeCmuJg7h+zEwIzlLW1xKnLX1m+wgKoOFhibifmIQ+qvJOdpmZeBiYm5jKE6KKhwAACAASURBVDmLJLVFSW1Tw8CLxIOjbZKztMWJwDuBJ7KDqBwWGpqoWcRWrzOIGQ6F0f3VzwCWSc4iSW1QUqFxP7F9rVuYx9f50fnMsc4UkRZqaHjYGR7VZkvg23g66oJ+CRwA3J0dRJIS3Q5slB1CPfkTMfR9XXYQlckVDdXpJmJu44rsIC2zBXAzsH92EElKsiqwYXYI9eTnxNC3RYYqs9BQ3R4B9iROFNc804ll+OPx352kwbMTzqyV5Ew8hE818A2PmjAb+AQxt/F8cpY2GSIGxL8FTE3OIkn9VNJ8xiCbQ3z9Pgy/fqsGFhpq0qnAW4B7soO0zL3EbiaSNCgsNNrvaWIew44E1cZhcPXDysQy7Nuyg7TAKcTuHf7DkzQoliW2RJ2SHURjupOYI7wtO4i6xRUN9cNjwN7EU5JBfoN9PnAsg/3/QNLgeQsWGW12MXFWiEWGamehoX4Z7ft8F7E8O2guBw7FPcglDR7bptrrS8A+wJPZQdRNFhrqt+8B2zJYT06uI/peZ2UHkaQEFhrtMws4GvgI8SBQaoQzGsoynZhXeFd2kIb9CtgVeDw5hyRlWIJ4Wr50dhD92QPEw6/rs4Oo+1zRUJanidOyPwHMTc7SlLuJM0UsMiQNqq2wyGiTa4k/E4sM9YWFhjINEwPi+9G9/tAHiF22/pQdRJIS2TbVHmcAu+HXJfWRhYba4CJix4tbs4PU5DGiyPD8EEmDzkIj32zgb4DD8RA+9ZkzGmqTZYGTgAOzg0zAc0SRcU12EElKNgQ8CqyUHWSAPQEcAlyWHUSDyRUNtclM4GBibqPEXTBeJOZOLDIkCTbDIiPTb4kzTCwylMZCQ20zOrexB/BwcpZezCGWpS/JDiJJLWHbVJ4Lga2B27ODaLBZaKitriJ2xrgxOcd4DAMfBL6VHUSSWsRCo/+GgX8F9mcwD8f9/9u773BNyjrP/+9DB7qbbJMEJCk5NzmHJicVbcbwW9MoKK6ju46Kv5kdHXd0YdVZnTEhujpjhAYVBZGcJOckApKVDE1sGjqc/eM+j31ouvucek5Vfeuuer+uqy/G5pyqzzSnq57v/b2DGsZCQ032EOlF9cPgHCP5FPD96BCS1DC7RwfomDmkQ/j+f9q7bbwy42Jw5eIY4Bukw5+a5J+Bz0eHkKSG2QC4NzpEhzxEOgD3hugg0nB2NJSL7wLTgUejgwzzLSwyJGlx9ogO0CFXkLaIt8hQ41hoKCeXkdZtXBUdBPgJ8LHoEJLUUK7PqMf3gX1p1iCc9FcWGsrNX4B9gJMDM/yGNA/WObCStHgWGtWaT9oK/oOkrdWlRnKNhnJ2DPDvwMQa73kxcAhp0Z0k6bVWJW1PPhAdpKWeIh3Cd0F0EGkkdjSUs++SDiN6sKb73Qy8FYsMSVqaPbHIqMqdpN28LDKUBQsN5e560rqNCyu+z93AQcAzFd9HknLntKlqnEE6hO/O6CDSaFloqA2eIBUBJ1Z0/YeAA4DHKrq+JLWJhUa5Bknvt6OA54OzSIW4RkNt827SlKopJV3vCWAv4I8lXU+S2mx5YBYwPjpIS7wIvB+YGR1E6ocdDbXNT0jzV+8r4VrPAgdjkSFJo7UrFhll+TNpl0WLDGXLh4Ha6CbSPNafkaY89eMl4AiadQDSOGBbYBqwObD60C+A2aStfx8kZb4G15NIqp8H9ZXjMuDtpN27pGw5dUptNg74IvBpiu2AMhd4C/DbKkIVNADsRzq34xBg6ii/bx7we+A04Mek7owkVe1C0gFy6t/JwH/F8zHUAhYa6oI3A/8JrDiKr11AWufx80oTjWwc8E7gH4FNxnitF0nrVv4Xac2JJFVhAqmTWtYaua6ZC3wC+FZ0EKksFhrqik2BXwCbLeVrBoGPACfVkmjJppFGtKaVfN0XgM+SXmKeai6pbLsAV0aHyJSH8KmVLDTUJSsC/0GaFrU4nwVOqC/OaywD/APwT1S7fuoyYAZu1yupXJ8C/nd0iAzdQnovPUl69i9P6g4tB0wkdYiWBSYDk4Z+TR76vSlDX7Pc0PcsP3SNFUid8RVJ75aVht3vZdK6vj+TNju5aujXy9X9v6iustBQ1wyQ1mx8iVfvuvZ1Uss6ylTSWoqDa7rfk8D+pNPOJakMZwBHRofIzFzSu2hccI7ZwG+AHwFnY9dbJbHQUFcdRvpgvzKpy/F+0tSpCNuTFm2vX/N95wB7k3aokqSxGCCtARvthhVqrjtIg3E/Ie69qJaw0FCXbQJ8EDgemB+U4T3Ad0ht8AivkLYCviXo/pLaYUvg1ugQKtWVwLH431VjYKEhxZgMfJPUSYn2Iqmb8mRwDkn5+gjultRGc4BP4n9b9cmTwaX6rQtcQjOKDEiLCK+i2FkjkjScB/W10yTSoNg3iV9HogxZaEj1OoyFJ5c3yRtJU7gkqR8WGu12HGk9o58bVYg/MFI9xgFfIO3qsUpwliX5ELB1dAhJ2VmP1KlVu70b+Fp0COXFQkOq3lTgLOB/0OzpSQPAKdEhJGVnz+gAqs3HgPdGh1A+LDSkau0E3AAcFB1klDYFDogOISkrFhrd8i3SdFtpRBYaUnXeA1xMflMKTowOICkrFhrdMoW0OFwakdvbSuWbAnybVGjkag/g8ugQkhpvVeBxmj0tVNU4GDgnOoSazY6GVK43kQ45yrnIAPhodABJWdgDi4yu+qfoAGo+Cw2pPEcC19KOnZveBqwRHUJS47mtbXftBmwbHULNZqEhjd044PPAL4GVY6OUZiLwwegQkhrP9Rnd9r7oAGo212hIY7Ma8DNgenSQCjwEbAjMiw4iqZGWA2YBE6KDKMw9pCnD0mLZ0ZD6tz1wDe0sMgDeABweHUJSY+2CRUbXvZE0ICUtloWG1J+PAlcA6wfnqNpx0QEkNdaO0QHUCNtFB1BzWWhIxUwCvg98g7SOoe32BzaODiGpkXaKDqBG2Dw6gJrLQkMavY1JU6U+EB2kRgPAR6JDSGokR7IFaa2itFgWGtLoHAFcDWwVHSTA+0iLPiVpuNWjA6gR2rLboipgoSEt3XjgROAMuvswXRl4V3QISY2zbHQANcKU6ABqLgsNaclWA84GPo0n37ooXNKiuv5cVDInOoCay0JDWrzdgBtJi6GVTn/dLTqEpEbxIC4BPBIdQM1loSG91jHARcDa0UEaxq6GpOHmRwdQIzwUHUDNZaEhLbQ86ZTvk+jG1rVFzQDWiA4hqTFmRwdQI9wYHUDNZaEhJRsDVwLviA7SYBPp1ta+kpbu6egACjcXCw0thYWGBG8DrgO2jA6SgWOBcdEhJDXC7dEBFO4S4IXoEGouCw112XjgK8BMYIXgLLlYDzgsOoSkRrgoOoDC/TI6gJptYHDQTSPUSauR1mNMjw6SoXOAg6NDSAo3Dbg+OoTCvACsAzwbHUTNZUdDXbQncDMWGf06kLSmRVK33Qg8FR1CYX6ARYZGYKGhrjkGuAB4fXSQjA2Q1mpI6rZB4MfRIRTiBeBL0SHUfBYa6ooVgFNJW9dOCM7SBh8AlosOISnc9/Hgvi76AvBodAg1n4WGumAT0ta1M6KDtMjKuBWwJLgVOCs6hGp1FfCv0SGUBxeDq+2OJo24LR8dpIVuAraLDiEp3DTgGtz6ugseB3YEHowOojzY0VBbjQdOAH6ORUZVtgV2iQ4hKdwNwLejQ6hyLwJHYZGhAuxoqI1WJ21du190kA74EfCe6BCSwq1AOvjUHenaaTZwBHBhdBDlxUJDbbMncAruKlWXl4F1Se10Sd22NXAFbhTRNn8B3oxnpqgPTp1SWwwAH8eta+u2LPD+6BCSGuEW4O3AK9FBVJozge2xyFCf7GioDVYgLfh2V6kYDwIbAvOjg0hqhLcAPwUmRwdR3x4CPgv8JDqI8mZHQ7nblLTVnkVGnHWBQ6NDSGqMXwEH4DkLObob+K+kbeEtMjRmdjSUs3cCJ+N84Cb4HXBIdAhJjbIG8EPg4OAcWrL5pLNQLgROJw3cLQhNpFax0FCOxgP/AnwmOoj+apDUXborOoikxpkBfBlYLzpI5uYCLwDzgOdJRcJzpMLgWdJz+Jmhr5019M9nhn7/2aGve27oOk8ADwB/GrqmVAkLDeVmbeBUYLfoIHqNrwJ/Hx1CUiNNAN4FfIy0uDhXi37IH+2H+/lD3zeP9MF+LulcildIW8e+DLwEzBn69dLQ780e+poXq/1/S6qGhYZyshdp69o1o4NosZ4hFYKzo4NIarTNgSNJZx1NA6YW/P6iI/hlfMjvdRMkFWChoRwMAH9Har1PCM6ipfsA8IPoEJKystrQr8mkXQQX8OoP94t2ESRlwkJDTbcC8H9Je7Or+W4kjVBKkqSOs9BQk21G2gVjs+ggKmRn4JroEJIkKZbnaKip3g1ci0VGjo6LDiBJkuLZ0VDTuHVt/l4mHeL3eHQQSZIUx46GmmQd4FIsMnK3LPC+6BCSJCmWHQ01xT7Az0knySp/DwBvJO0SI0mSOsiOhqINkDoY52OR0SbrAQdHh5AkSXEsNBRpReA04ARgXHAWlc9F4ZIkdZhTpxRlW1KR8cboIKrMILAJcHd0EEmSVD87GoqwP2nRt0VGuw0AH4oOIUmSYtjRUN3eC5wMTIgOolrMIu0mNjs6iCRJqpcdDdXpaOD/YpHRJauQ/rtLkqSOsaOhuuwKXEQ6Y0HdcgOwfXQISZJULwsN1WEl4EZgg+ggCrMTcG10CEmSVB+nTqkOJ2CR0XVudStJUsfY0VDVtgWuw3Myuu4l4A3AU9FBJElSPexoqGqfwyJDMBl4f3QISZJUHzsaqtJGwB+xoFVyL+lnYkF0EEmSVD0/AKpK78GfMS20IXBQdAhJKmAgOoCUMzsaqtJdpBFsqedM4IjoEJK0GKsAW5C2494e2Bx4AdgnMJOUNQsNVeUNwIPRIdQ4C4A3AfdFB5HUWeOBdXl1UbE98PrFfO18YDVgVm3ppBYZHx1ArbVndAA10jLAscDx0UEkdcKKwNak7kSvsNgOmDLK7x8H7A38qpJ0UstZaKgqm0UHUGP9LfB5YE5wDkntshYLpzz1iopNGftawQOw0JD6YqGhqmwYHUCNtSpwNPCf0UEkZWkCsDGvXkuxLenZUoUDKrqu1HoWGqrKKtEBKjYP//6MxXFYaEga2eIWaG8JLFtjho2A9YH7a7yn1Ap+UFJVRjv/NUe3kEbT/PvTv52BHUinxkvSOGA9RrdAO8J04PvRIaTc+EFJVXk5OkBFfgycCvw6OkgLfIS0XkNSt0whDTRsM+zXlsCkyFAjOAALDakwCw1V5dnoACV7GfgE8B3gy8FZ2uKdwKeAp6ODSKrVesAl0SEK2p+0qHxBdBApJ57arKrcHx2gRH8mHdj0naH/fWBclFaZDLwvOoSk2t0BPBQdoqCppAXnkgqw0FBV7owOUJJzSXuuXzX0v9cAtoqL0zrH4XNI6qILogP0Yf/oAFJufMGrKldGBxijQeBE4FDgyWG/vz8wEJKond6IHSKpi86LDtAHt7mVCrLQUFXuAB6JDtGnWcARpNOr5y/y73zRlO+46ACSanc+aUAnJ3uQpnxKGiULDVVlEDg9OkQfbgJ2BM5awr+fXmOWrjgM2CA6hKRaPQ7cGh2ioEmkYkPSKFloqEo/ig5Q0A+A3YB7lvDvNwfWqS9OZywDHBMdQlLtcpw+5ToNqQALDVXpGuDy6BCj0Nu69gPAS0v5OqdNVeeDNHsPfUnly7HQ8D0gFWChoap9ITrACO4Hdge+Poqv9QVTnVWBt0eHkFSry8jvcNdtgdWjQ0i5sNBQ1c5lyesdov2OdDrt9aP42onA3tXG6TwXhUvdMps8ut7DDQD7RYeQcmGhoTp8mGad/tzbuvYw4KlRfs8uwPKVJRLArsD20SEk1er86AB9cJ2GNEoWGqrDn4GP0IytDJ8inY1xPLCgwPflNm3qXprx513Uh6MDSKqV6zSkFrPQUF1OJX69xo2krWt/18f35vZiOQu4KDpEH94NvC46hKTa3MCrD0XNwbrAxtEhpBxYaKhO/wz8e9C9v0fauva+Pr53ZdJajpycB3wrOkQfJgPvjQ4hqTYLyHNQJLfBJymEhYbqNAj8HfBF6pvW8xJp29oPAXP6vMZ0YFxpiao3D7gEOIM0bS03x+GzSeoS12lILeXLXBH+Efgb4LmK73M3qYvxgzFeJ7eRq6tIf7bzgJODs/TjTfgSl7rk3OgAfdgPmBAdQmo6Cw1FmQlsSTVb384Dvkza7/ymEq6XW6ExfHHld4G5UUHGwK1upe64H7gnOkRBK5LflFqpdhYaivQQcDhp9LqMvdTnAz8GtgA+TdqjfazWBzYs4Tp1Gl5oPAr8MirIGBxO+rOX1A3uPiW1kIWGmuACYA9gGvAN4MEC3ztI2k3qH4H1gP8C3FVitoNKvFYdngOuW+T3clwUPo60rkZSN7hOQ2qhgcHBHLfaVwdsRjq8bUtgLWANUmE8B3iCtHvUrcDVwCMV5jgNeFuF1y/br4C3Lub3byX9WebkceANwCvRQSRVbmXSNre5bbwxlerXG0rZGh8dQFqCO4Z+RRoH7BucoaglTT/4Fvl1NlYHjgBOjw4iqXLPANcDO0UHKWA8sBdwZnQQqamcOiUt2fbkd3jcknZv+RF5jrodFR1AUm1yXKfh9ClpKSw0pCXLbaHfA8CflvDvXiAVG7k5BJ9TUlfkuE4jt/eEVCtf4NKS5fYCGWkv+m9S30GJZVkF2Dg6hKRaXEEaFMnJ5sA60SGkprLQkBZvOWCX6BAFjTTt4A7SieG5mRYdQFItXgEuiw7Rh+nRAaSmstCQFm8fYNnoEAUsAC4axdfltiAc0rbFkrrB6VNSi1hoSIuX24vjBtLWkCP5FfBwxVnKtmZ0AEm1yXVB+EB0CKmJLDSkxcut0Bjty3kucHKVQSowMTqApNrcRrVnI1VhDfI7p0iqhYWG9FprkQ4MzEmRUcDvkgoOSWqaQeCC6BB9yG1wSqqFhYb0WgeQVxt8Nmm3ltF6mDSFKhdPRQeQVCvXaUgt4cng0mvl9sK4FHi54Pd8C5hRQZYqPBodQOrTSqQT7lcFpg79c1VgtaF/rjD0azxpx6WHSefh3ABcTXeL7PNInY2cBnz2Im0gUvRZLLWahYb0agPAftEhCupn8eTFpLnQOcwrvj06gARM4bWFwvACYrWhX1OH/f6EMdxvAalTeRrwH8AzY7hWbh4mbce9eXSQAqYAu5KerZKGWGhIr7YV8ProEAX1u0vLd4BvlBmkAguAm6NDqHUmMHKRsCqv7kZMqTnjMsAeQ7++BHwf+CLwWM05opxHXoUGpG74xdEhpCYZGBzM7aBgqVKfBL4SHaKAR0mL1/v5i7wC8GdgxVITletaYKfoEGq8RacmTWVh8TD8300l7RDU5J/5pXkB+BzwNVIR3maHA7+JDlGQzytpEXY0pFfLbX1Gby5zP54HfgJ8pLw4pTszOoBqtzyv7Sb0/tn7vUULi65sbLI88FXgrcDR5LcNbBEXkdat5LS99TTgdcDT0UGkprCjIS00kfSCWC46SAHvAX40hu/fEriFZi66XABsSFocqzwty8JiYLRrG5YNSZqfh4EjSAvH2+pSYM/oEAW9HTg9OoTUFHY0pIX2JK8iY5CxbwN5G3AWaZpC05yFRUbTTCatYVoLWGWRX4v7/TVpZhHbBmsBFwIHA1cFZ6nKeeRXaByAhYb0V3Y0pIVOAD4THaKA20iL18dqGnAdzftAuBNpzrPqsyqwN+lnYnNS8bAKaTrIqoG5tGSzgF2Au6KDVGBXip0R1AT3AxtEh5Cawo6GtFCO6zPKcAPpAL+3lnS9MvwUi4y6bAD8E3AIaaG08rIKadH0jsBzwVnKdg2pkFolOkgB65OmfN4bnENqhK4soJNGMhXYNjpEQWUVGgAfozn79D8N/PfoEC23DOnAxjtJH4jeh0VGzjYG/k90iArMBy6JDtGH/aMDSE1hoSEl+5PX34dXgMtKvN5fSLtPRc+lHATeS3fOCohwGGl6x6mkD6hqhw8A06NDVKDMAZW65NYdlyqT0wcrqUq5vRiuIO2pX6afA/+75GsW9Tnc0rYqawBnkP583xCcRdX4Ku17r+dYaEwHxkWHkJqgbQ8kqV+5jQRW9fL9LHByRdceyb8B/zPo3m23O3ArcGR0EFVqG9r33/huUgcuJ6uQNlSQOs9CQ0rTR9aPDlFQVYXGIPBh0snDdfoC8Ima79kVf0M6/Gy16CCqxcejA1TggugAfXCdhoSFhgT5TZuaRbWHdC0A/htwDPBShfeBtEvOu0hTpqLXh7TRO0mnv0+IDqLa7E37psblOH0qt/eKVAkLDSm/F8L5pN1YqnYyqf1/ZUXXP2/o+j+r6PpdtxfwQ5wr3jUDwFHRIUp2PmkAJCe7k9cBsFIlLDTUdeOBfaJDFFTn6N4fSS/Mdwz932W4EXgLcCBwT0nX1KutCZwGTIwOohD7RAco2VPATdEhCppIfqeaS6Wz0FDX7QSsFB2ioPNrvt8gcArppOhDSduivljwGs+RRtf3BbYn7X6k6nwf12R02S7RASpQ93OvDK7TUOd5Mri67sDoAAX9Cbgv6N6DwNlDvyYDOwO7ApuRTpdejlS0PU86/O8eUhfkctIJv/Pqj9xJR5EKQnXXmqS/j0UHBJrsPODT0SEKym1arlS6gcFB11+q0y4HdosOUcC3geOiQ6ixxgF3ABtFB1G4TUknv7fFJOBp0iBHLgaBtYFHooNIUZw6pS5bAdgxOkRBOe6+ovq8DYsMJWtEByjZHOD30SEKGgD2iw4hRbLQUJftR17bfs4HLo4OoUb7aHQANUZOz7bRcp2GlBkLDXVZbvNnryWdoSEtzuuBPaJDqDFmRweoQI4d3dzeM1KpLDTUZbm9AHJ8yao+R+IzXQu1cVDiJuDx6BAFrU3aMEPqJF9K6qp1gY2jQxRkoaGlcc9+9SwAHogOUYFB4MLoEH3IbVBLKo2Fhroqtwf/88BV0SHUaDtEB1Bj3Ae8FB2iIq7TkDJioaGuyq3QuBiYGx1CjbUMsH50CDVGbrszFZFjZ3cf2rk4XxqRhYa6aBny23Iwx5er6rMqsGx0CDXGBdEBKvQgcFd0iIJWIB1wKnWOhYa6aFtgtegQBVloaGmmRAdQY7wE/Do6RMVyfB7m1kWXSmGhoS7K7YH/F+CP0SHUaD7L1fMr4NnoEBVznYaUCV9O6qLcCo1zowOo8Z6LDqDG+Gp0gBpcSH5r1nYCVooOIdXNQkNdMxnYPTpEQTlOE1C9niG/D14q3xnA9dEhavAccF10iILGkxaFS51ioaGu2QuYFB2igEHgougQarx5wD3RIRTqJeC/R4eoUY4DMLl106Uxs9BQ1+T2oL8ZeDQ6hLJwc3QAhfoH4N7oEDVynYaUAQsNdU1uhUaOo3ZKW83+PfXunX9xjfdSs/wG+Fp0iJpdSX5rkzbB827UMRYa6pI1gK2iQxRkoZGfrUkfgr4MHFfjfX9HmmqnbrkeeBfd+28/D7g0OkQfcjvDSRoTCw11yf7AQHSIAubQ7hN+22YC8BngWmC7od/7HDC1pvvfD1xd073UDDcChwIvRAcJkuP0qdy66tKYWGioS3J7wF9GWuCp5tsauAo4AZg47PdXIc2dr8tPa7yXYp0P7As8Hh0kUI4d3/3xs5c6xB92dcn06AAF5fgS7ZrxLOxiTFvC13wU2KimPD/HbW7bbj7wP4GDaf/BfCP5A/Dn6BAFrUoamJA6wUJDXbE5sE50iIIsNJptK9JUpUW7GIuaOPQ1dXgCD3hss6uBHYF/IhUcgguiA/Qht+661DcLDXVFbg/2J4FbokNosXpdjOtYchdjUUeRznCpw09quo/qcyVwJLAraV2GFspxQCa395HUt/HRAaSa5PZgPw9YEB1Cr7El8ANghz6+92tD31f1f9czgOeBFSq+j6qzALgBOIe07uYPsXEa7XzSjls5bfSxJzAZ1+CpAyw01AUTgb2jQxSU4yhdm40HPgn8M+mMjH5sR9qG9MdlhVqC2cAvgfdUfB/1ZxZpituTwFPD/vnY0K87SYVFV3eSKuox4Dby2rp8ErAbeU77kgqx0FAX7AosHx2ioBy3bWyrLUhdjB1LuNYJwC9IxUCVfoKFRh3mkAqH4b8eBh5Zwu89gYv1q3AeeRUakLrsFhpqvYHBwa6d8aMO+hfq3WJ0rP4IbBYdQqV0MRbnH4Evlni9xVkGeBBYu+L7dM0zpOfJKaQuhFNfmuFg4OzoEAXdAGwfHUKqmovB1QU5rs9QrM2BK0gdiDKLDIDjgdeXfM1FLQBOrfgeXbQy8BXgX4HlgrNooUuBl6NDFLQtsFp0CKlqFhpqu5XJb9TIQiPOMsDHSaONZUyVWpzlSV2Sqrn7VHVmALcCb4kOIiBNRbwyOkRBy5AOXJRazUJDbTcdGBcdooB5wCXRITrqjcDFpN2hyu5iLOoDVD+n/Hrg9orv0WVrkhbdnwpMDc6iPAdocuu2S4VZaKjtcnuQXwk8Fx2iY5YBjiGdW7JnTfccRypoqvazGu7Rdb3uxuHRQTrOQkNqIAsNtV1uD/IcX5Y52xC4CDgJmFLzvfcDDqn4Hj8mnTGgar0e+A2pu/G64CxddQPwdHSIgtYDNooOIVXJQkNttj7pg2ROLDTqMcDCLkZdJ3YvzlepdpvxB4DLK7y+Xm0GcDNpFyTVaz5p0CA3+0cHkKpkoaE2Oyg6QEHPANdFh+iADYELSV2M6J2DNgM+WPE9XBRer3VIW62eCqwSnKVrchyoya3rLhVioaE2y+0BfhFpMbiq0eti3AzsExvlVb4ArFTh9U8hv60/22AGcBP5PYdydk50gD7si4cnq8UsNNRW48hv68AcR+NysQHpFN6TaN4p8auRztaoyizyO8ysLdYlffg9CVghOEsX3A/cGx2ioJWBHaJDSFWx0FBb7UB+izItNMo3KRvbKQAAHU9JREFUfC1GkwvPT5DWFFXF6VNxhv8M7hecpQvOjw7QB9dpqLUsNNRWuU1XeAD4U3SIllmf9KGjiV2MRU0CvlTh9c8krQFSnPXJ5+cxZzkO2OT2vpJGzUJDbZXbg/vc6AAt0htBvpW8RpDfAexe0bXnAKdXdG2N3vB1QpG7nbXZBaQdqHKyCxafaikLDbXRcsDO0SEKynEUronWI/1Z5jhqPAB8ZeifVXD6VHNsSDqFPsef06abRTpTIycTgb2jQ0hVsNBQG+0DLBsdooAF5Ln/e5MM72JMD84yFrsAb6/o2pcAD1V0bRXX+5m9geo6WV3lOg2pISw01Ea5TZu6HngyOkTG1iNNPWvLzj4nUk2hvAD4aQXX1dhsBFxGM851aYscO8S5vbekUbHQUBvl9sDO8aXYFDOAG2nXaOAGwMcquvZ/VnRdjU2vu3EdqaulsbkceDE6REFbkA57lFrFQkNtsxbptOWcWGgU93rg17T39OV/AFat4Lp/IG2zqmbalPQh+SRgSnCWnL1C6hLlJqfNK6RRsdBQ2xxAdYtpqzAbuDI6RGZmALcDR0QHqdDKwOcquraLwpttGVJ341pgx+AsOXOdhtQAFhpqm9ymTV0CvBwdIhNrAmfQ3i7Goj5Mmk5Rth+T3/afXbQ5cAVwAnltbtEUOXaKcxsok0ZkoaE2GSC/1nOOL8MIvS7GkdFBajQe+F8VXPdhUoGr5hsPfIbU3ZgWnCU3twKPRIcoaE2qGVyQwlhoqE22Js3dz4mFxtKtCfyK1MV4XXCWCEdQTZfO6VN52Qq4mtTdmBicJReDwIXRIfqQW1deWioLDbVJbg/oR0mj9Fq8GcBtwJujgwT7MuU/q08DXir5mqpWr7txNbBNcJZcuE5DCmahoTbJrdA4jzTqpldbA/gFqYsxNThLE2wDvLfkaz4HnFnyNVWPbUnb4NrdGFmOHeO9cU2OWsRCQ20xCdgjOkRBOb4Eq9Zbi/HW6CAN8y+Uf5ib06fy1etuXAFsGZylyf4C3BEdoqDl8CwVtYiFhtpid/Lad36QPNv6VVkDOB27GEuyFvCpkq/5WzyRPnfbk7obnyUVH3qtHAd0cuvOS0tkoaG2yO3BfBv57YhSld5ajKOigzTcp4E3lHi9ucDMEq+nGMsCXyId9Ld5cJYmynFAx3Uaag0LDbVFboVGjqNsZVudtCj5VKo5BbttJgNfKPmaTp9qj52A60lTqsYFZ2mSi0lFdU52oJu77KmFLDTUBlNJCyRz0vVC42jSWoy3RQfJzJbAhBKvdwVwb4nXU6xJpEXilwObBmdpiudJO3XlZBywT3QIqQwWGmqD/cnrZ/kV4LLoEEFWI03XOQW7GEXMA04krUUqc3R2EPhpiddTM+wM3IjdjZ4cB3Zy69JLi5XThzNpSXJ7IF8OvBgdIsDhwM3A26ODZOZW0gfH40lFatn+s4JrKl6vu3EZsElwlmiu05CCWGioDaZHBygox9G1sVgFOAn4Dfmd3B6p18XYAbihwvvcTdq5KCeDwOzoEJnYlYXdja6+868Bno0OUdCbgA2iQ0hj1dWHjtpjY2D96BAFdanQOIy0o9Qx0UEycxtpL/2quhiLym1R+ADwdeCS6CCZmMzC7sZGwVkizCMtCs+NXQ1lz0JDuTswOkBBT1Ht6HRTrEzqYpxJOgNCozO8i3F9jff96dC9c3IwsC9wLN2citiP3UjTF7vY3chxgCe3acHSa3TtQaP2ye1BfCGwIDpExQ7FLkY/bidNczkeeLnmez8OXFDzPcdqO2AL4LvANnR3g4Wiet2NS0jTc7oix3Ua++HnNGXOH2DlbDywd3SIgnIcVRutXhfjLGDt4Cw56XUxeqc8R8lt+hTAO4f+eQ9pO9BPUH+Rlqs9SN2Nj5OmorXdncD90SEKmkoqqKVsWWgoZzsDK0WHKCjHUbXROIS0O5JdjGL+QJrOEtHFWNQvgBeCMxT1/7HwPbaAtG5jGnBtWKK8TAG+BpwDrBucpQ4XRgfoQ25de+lVLDSUs9wewHcD90WHKNlKpC7Gb4F1grPkZD6pi9GkD8UvAmdEhyhoXdLI/HBNKt5ycQALBwra3N3IsaOc23tOehULDeUstwdwji+5pTkY12L04x7SIuYmfhDOcfrUuxfze02ZjpaTFUmDBmcDbwjOUpXzyW+N3B7ActEhpH5ZaChXKwA7RocoqC2Fhl2M/iwgLVzemuYuXD4PeCw6REEzgGWX8O+GL7CvY5vgNjiI9k6DfBK4JTpEQROB3aNDSP2y0FCu9gMmRIcoYD7t2PN/+IeQNk+xKFuvi3EszT5obh5wSnSIglYh7XS2JHUdfNgmwwcT2raxQ44DPrl176W/stBQrnJ78F4DzIoOMQZdmFZRhUEWbr96aXCW0WrL9KlF3Uq9hyC2wSG0b3qkhYZUo4HBwcHoDFI/7iSdCp6LLwCfiw7RpwOA79GNXWnKdC/wAfLsZP0R2CQ6RAGvAK8Hnh7l128N/BC3Di3it8CHgIejg4zRJNLPyeToIAUMkg4+fTQ6iFSUHQ3laF3yKjIgz1G0KaTtQruy9WVZel2MrcmzyIB0UnhOJgJvK/D1t5C2xz4emFtJovY5lLTmJffuxhzgiugQBQ2QpgtL2bHQUI5yayM/D1wdHaKgPUmHef0drsUo4j5gOmktxovBWcbiJ6SCKSejmT413FzS2o09gDvKj9NKvUM5f0PqIOUqx4Gf/aMDSP2w0FCOcis0LiafUdMpwAmkzG+KjZKV4V2Mi4KzlOEe4KroEAXtBazfx/ddQzrP5ETSpg0a2eGkgYi3RwfpU46FxoHRAaR+WGgoN8uQXws5l5faHqQPD5/BZ0MR97Owi5HbydpLk9ui8AHgHX1+7xzSNKo9SOtTNLLVgJnAqcCqwVmKugl4IjpEQWsDm0aHkIryw4Rysx3pBZeTphcak0ldjEuwi1FEr4uxFe3oYizqZ+S3O9N/GeP3X0V6xtjdGL0ZpLUbR0UHKWABef6dza2bL1loKDu5PWj/TLNHSHfHLkY/7if9LLatizHc06SNAHKyObDtGK/R627sCdw15kTdsDpwOqm7MTU4y2g1fQBocVynoez4wUK5ya3QODc6wBL0uhiXAhsFZ8nJ8LUYFwRnqUNuu09B8UXhS3IlqWg5kTQCrpH1uhtviQ4yCjkWGvuS10G1kudoKCuTSaOsk6KDFPBO4OfRIRaxG/AD8tsiONoDwAeB86OD1GgSae/+laKDFPAwaTvmMqc+7U76O2NRPnozgQ8z+rNNItxFfv9N9wAujw4hjZYdDeVkL/IqMgaBC6NDDDO8i2GRUcyPSGsxulRkQJpG9MvoEAWtRRr5LdPl2N0oqtfdODI6yFLk+Pc5t66+Os5CQznJ7QF7E/B4dIghuwI3ktZijAvOkpNHSB+U3kM6D6WLctt9CsqbPjXcbNLajb2BP1Vw/TZaEziDtHZjleAsi5Pj9CnXaSgrFhrKSW6FRhNeYpNIXYzLgE2Cs+RmJrAF6XCyLruQtKlBTo4inQlThd8D2wD/Rn6HGkbpdTcOjw6yiIuAedEhCtqZvKYyquMsNJSLNUhTV3ISXWjsgl2MfjwCvBk4GpgVnKUJFgCnRIcoaEXgiAqvPxv4OHAw8FCF92mT1wO/Jp0svkJwlp5ngOuiQxQ0ntRVk7JgoaFc7E86kCsXc4hbsNfrYvweD3gqaiawJekDkRZy+tTinUv6efkudjdGYwA4BriVdMhlE+S4TsPpU8qGhYZykdu0qcuAlwLuuzNwA3YxinqUtCXn0TR7l5woNwK3RYco6GDqObH6OdJ5KoeQ3xSzKOuROr4nAcsHZ4nuPPcjt/ehOsxCQ7loyujXaNX98poAfJ7URdms5nvnrtfFOCM6SMPldqbGBFLhWJdzWNjd0MiGdzfK3iWsiCtJxWJONgXeEB1CGg0LDeVgC2Cd6BAF1VlobANcA3wOuxhFPAa8lfRh9KngLDn4Cflt7VrH9KnhniV1Nw4F/lLzvXO1Punwy6juxlxSBzo3Tp9SFiw0lIPc2sRPArfUcJ8JpClS15L2+Nfo9XaU+lV0kIw8SFr3k5PdiDmQ7WzsbhTR627cTMxCZ9dpSBWx0FAOcis0zqX6kd+tgatJi74nVHyvNnmMtPWpXYz+5Lgo/J1B932G1N04nHRauUa2IWnL2ZOA5Wq8b47rNHLbIEUdZaGhpptIOhE8J1W+tIZ3Mbar8D5t1FuLkdtJ100yE3g5OkRBUYVGz1nY3ShieHejrmf/7eS3kH910oCT1GgWGmq6XYnflaSoCyq67lbAVaQuxsSK7tFGjwNvJ3UxngzOkrtZpA/OOdmUmOlTw80idTeOBp4IzpKLN5K6G18nbdldtQtruEfZcuv2q4MsNNR0uT1I76D8A7zGk7oY1wHTSr522/XWYpweHaRFcpw+tU90gCG9rpo/j6OzDPB3wPXAjhXfy3UaUgUsNNR0uRUaZU+b2hK7GP14ApiBXYwqnEl+Z41U/SG1CDtsxW0OXEF6Di5b0T3OI79DF/cCJkeHkJbGQkNNtjKwfXSIgsoqNHpdjOvJ788gWq+LcVp0kJZ6hfxG5DeNDrAYrhkqZvgzcYcKrv8oaa1GTiaTphdLjWWhoSabTl7nQswDLi3hOluQDpGyi1GM8+Drk9v0qaaew+MuaMVV+XzMcfep3Lr+6hgLDTVZbg/QsZ4wW/WIXZu5s0+9LgXujw5RwErRAUbg6fTFVLVuzXUaUsksNNRkuRUaYxkN24Lq5yC3kWcVxBgEfhYdooDx0QFG4VHgLaTuRm5rYKJsxcLzhMroblxCfts3TwNWjQ4hLYmFhppqA9LhTTnpp9AY3sVo0oLVHPwWuxiRfhQdoIDZ0QEK6HU3fh0dJBO9Z2gZZwu9SNp8IyfLAPtGh5CWxEJDTXVQdICCniG18YvYHLgcuxhF9boYhwF/Cc7SZXcAN0WHGKXc1uw8AryZ1N2YFZwlF1uzsLsxYQzXcZ2GVCILDTVVbg/OC0mLwUdjGdLJt9cCO1WWqJ3Oxi5Gk+SyKPze6AB9mglsS55rByJMYGF3Y5s+r5Hjn/WB0QGkJbHQUBONozkHbI3WaEfBeqfdngRMqS5O6zxL6mIcil2MJvkpMD86xCjcHB1gDB4kfZA8Fng+OEsutiFNgfoMxXcuvI781sisR3q3SI1joaEm2gF4XXSIgkYqNHpdjJtJhyxp9H6HXYymephUODfd5dEBxmiQ9PO/Nal7qpFNIk2j+j3FzlGZD1xcRaCK5TYLQB1hoaEmyu2BeT9wz1L+/YakDwcnAcvVEaglhncx/hycRUvW9OlTs8m/0Oi5n7Sd6bHAC7FRsrELcCPFuhuu05BKYqGhJsrtgXnuEn5/gNTFuAXYu744rXAOaevK75JGc9Vcp9PsKT1nknYTaovh3Y0cuklN0OtuXAZsMoqvz3Gdxn7kdcCtOsJCQ02zHLBzdIiCFjf6ZRejP8+RRmsPAR4KzqLReR74QXSIpfhOdICK3AdMJ/19aVMhVaVdWdjdWNrnnz+R/nxzsjIe9KoGstBQ0+xDXlu9zufVc6Z7XYybyW9Be7RzsYuRq3+jmYvCb6Tdo/7DuxuXBGfJxWQWdjc2WsrX5djV8JRwNY6Fhpomt2lTN7Bwh5INgAtIXYzlwxLlp9fFOJi0w47ycw/NXKvx2egANbmXdGib3Y3R2400ILSk7obrNKQSWGioaXJ7UJ7Hq9dieEJrMZcB22MXow0+Qyoam+LXpLU+XdHrbmxD+nulkfW6G5cAb1rk310ILKg90djsioNcahgLDTXJWsBm0SEKupXUYreLUcxs4HjS9LI/xUZRSR4lFdxN8CRpdL+L7iH9vfoE8HJslGzsQepufJw0cATwFGnqXU4m4vbpahgLDTXJgSx8yOfgFdII4n7RQTLze9Ko64nkN2KopTsF+H5whnnAu0iFT1ctAL4OTCOdkq2RTQG+RuqCrTv0ezlOn3KdhhrFQkNNktu0qYnACtEhMtLrYuyNXYw2+whL3vK5aoPAR8nzA2IV/kBai3A8djdG6wBSp/oY8lwQntt7VC03MDjotGg1wgDplOE1o4OoEpcD7wfujg6iWkwhna9xcI33HCRNffn3Gu+Zky1J2xC7BeronQfsTvp5zsUgsDbwSHQQCexoqDm2xiKjjV4ijabuhUVGl8wG3gz8R033ewE4GouMpbmNtFj4eNK0T43sAFLnOicDOH1KDWKhoaaw3ds+VwDb4lqMrnoFeB/wIao9Ofx6YBfgtArv0RbzSH8fdyBtza2RjY8O0AcLDTWGhYaawkKjPYZ3Me4KzqJ43wM2JxUCZc7VfRr4e1KRcXuJ1+2CW0l/bnY32im3jVXUYq7RUBNMIm0lmNM8WC3elaS1GHdGB1EjbUP6cPtWYNk+r/EgaTvpbwLPlpSry7YmTXHbNjqISrUlFuBqADsaaoLcFtvpteaQPkDuiUWGluxm4J2kM3M+RFow/tgI3zOPdBjm10gHYm4IfAmLjLLcAuxE+vs7NziLyuMsATWCHQ01wQmkU4WVp6tIXYw/RgdRttYA3gisxsLFty8AD5EOoHspKFfX7AT8kPwOTtVrnQUcHh1CstBQE1xPOlhKeZkDfB74CjA/Noqkkkwi/b3+e2BcbBSNwYvAVDw/RcEsNBRtKvA4TuPLzdWkLsYd0UEkVWIX0rkbm0YHUd/2Bi6NDqFu88Odou2PP4c56a3F2B2LDKnNrgK2I22Ha8cyT25zq3B+wFM0F6zl42bSgV9+8JC6YfgmD25VnR/frwpnoaFo06MDaERzScXFjsBNwVkk1e9KPHwzRzsCq0SHULdZaCjSJsD60SG0VLcAO+PWl1LXDT+I8+7gLBqdccA+0SHUbRYaimRbt7mGdzFuDM4iqTkux+5GTlynoVAWGopkodFMw7sYrwRnkdQ8s0nPh32AP8VG0Qh8zyqUhYaijCdtvafmmIddDEmjdxmwPfBdwL3ym2kjYIPoEOouCw1F2RlYKTqE/upW7GJIKu454FjgYNJJ7moeN11RGAsNRbGd2wy9LsYOwA3BWSTl61xgS+xuNJHrNBTGk8EV5XJgt+gQHXcb6XTv66KDSGqVg4DvAetEBxEATwGr4+J9BbCjoQgrkNYBKMbwLoZFhqSyncPC7obiTSXtFCbVzkJDEfYDJkSH6KjbSZ2k44GXg7NIaq9nSWs3DgX+EpxFTldWEAsNRfCBV79eF2N74NrgLJK642zsbjSB712FcI2GItwJbBwdokP+ALwPCwxJsQ4jFRxrRQfpoDnA60gnvEu1saOhuq2HRUZdFgD/BkzDIkNSvLOwuxFlErBHdAh1j4WG6mb7th73kE7t/TiuxZDUHLNIazeOBp4IztI1vn9VOwsN1c0HXbUWkEYLtyad2itJTTST1N04PTpIh/j+Ve1co6E6LQM8CqwWHaSl7iWdi3FpdBBJKmAG8C1g1eggLTcIrAk8Hh1E3WFHQ3XaDouMKiwA/pU0OmiRISk3ve7GL6ODtNwAaXt5qTYWGqqTbdvy3QtMBz6Ju4lIytdjwFGktRtPBWdpM9/DqpWFhurkA648gyxci3FxbBRJKk2vu3FGdJCWOjA6gLrFNRqqy2TgadIWexqb+4C/BS6KDiJJFZoBfId0/oPKsynpPCupcnY0VJe9sMgYq+FdDIsMSW3X6278JjpIy+wfHUDdYaGhujhtamzuJ70cjgVeiI0iSbV5BHgzcAzwXHCWtvB9rNo4dUp1uZk0Eq9iBoGTSYu9LTAkddl6wPdwRH6sngemAnOjg6j97GioDmsAW0WHyNADpJEnuxiSlJ6JBwLH4TNxLFYAdowOoW6w0FAdDiDt363R6a3F2Aq4IDiLJDXJIPBt3HFvrOwKqRYWGqqD80FHrzdidyypvS1Jeq37SIfP2fHtj+9l1cI1GqrDQ8A60SEy8CPgo1hgSFIRbwR+AOwZHSQj80jrNFxgr0rZ0VDVtsAiYySPAEcC78EiQ5KKugfYm9TdeDE4Sy7Gk/7MpEpZaKhqtmeXbiapGHOfeEnq3/Bzhi4JzpIL12mochYaqpqFxuI9Stob/mhgVnAWSWqLe4HpwKeAOcFZmu6Q6ABqP9doqEoTgaeA5aODNMxM4MPA09FBJKnFXLsxsnVJ6yilStjRUJV2xSJjuEeBt5C6GBYZklSte4B9gc8CLwdnaaq3RQdQu1loqEpOm1poJrAlcEZ0EEnqkPnACcA04NrgLE30vugAajcLDVXJQgMeA95K6mI8FZxFkrrqD8BuwP8AXgnO0iSr44G6qpBrNFSVVYAngHHRQQLNBD6CBYYkNcmWwA+B7YNzNMX2wA3RIdROdjRUlX3pbpHxGGneq10MSWqe20hrCP8ZmBucpQkOjQ6g9rLQUFV2jw4QpLcW4xfRQSRJSzQX+DyO5gPsER1A7WWhoarsHB2gZo8Dbyd1MZ4MziJJGp1bSd2NLwLzgrNEmRYdQO3lGg1V5XFgtegQNZkJfJS0JkWSlKetgf8Ato0OEuB1eHisKmBHQ1VYFlg1OkQNngBmkLoYFhmSlLdbgJ2A4+ne2o11ogOonSw0VIUVaP92eWeSRr1Oiw4iSSrNXOBE0mnidwRnqdPU6ABqJwsNVaHNu03NAo4FjgAeDs4iSarG1aS1CyeSDv1ru/HRAdROFhqqwgvRASpyFmlHqe9GB5EkVW4OaRrVXsBdwVmkLFloqAovAs9FhyjRM6QuxuHYxZCkrrmCNFW2zd2Np6MDqJ0sNFSVtoz+/Ba7GJLUdS+Ruhv7AvcEZ6mC27KrEhYaqsp10QHGqNfFOAz4S3AWSVIzXAZsRepuLAjOUpbZwJ+jQ6idLDRUlQujA4zB2aQXiV0MSdKiet2N6cB9wVnKcDvtKZrUMBYaqsrZpIV0OXmW1MU4FEd3JElLdzFpam3u3Y2LowOovSw0VJUXgFOiQxTwO1yLIUkqZjapu3EQ8EBwln5dEB1A7TUwODgYnUHttS1wA80+vO9Z4NPAyYB/GSRJ/VoR+DLwIZr93hvuCWBtuncSumpiR0NVugn4WXSIpTiHhWsxLDIkSWPxHGn67SHkM/32p1hkqEJ2NFS1NwC3AitFBxnmOeBT2MWQJFUjh+7GfGBT4E/RQdRedjRUtYeAj0SHGOZ87GJIkqrV624cQXMPev0pFhmqmIWG6vAz4CvBGeYDnwQOBB4MziJJ6oazgM1p3kYjzwOfjQ6h9nPqlOoyAHwfeH/AvR8E9qOdp7lKkvJwJHASsGZ0EOBjwDeiQ6j97GioLoPA35LmrNblRdL82PWwyJAkxfo1sBnx3Y0zgW8GZ1BH2NFQhBmkhdhVLhD/PfBB4M4K7yFJUj+OAr4NrF7zfW8F9gKeqfm+6ig7GoowkzRn9ceUvyD7buAdpAepRYYkqYl+QTokdmaN97ybtE7RIkO1saOhaFuTFmn/DbBsn9dYAFxCGh06feh/S5KUgxmkqUyrVXiPq0lrRB6v8B7Sa1hoqClWIj0EDwF2B9Yd4esfA64kbVf7a9I2upIk5WgN4N9JRUeZBkmLvj8DvFTytaURWWioqVYlLeJeB5g49HuzgSdJ+34/FZRLkqSqHAD8H2CLEq51M/DfgItKuJbUFwsNSZKk5liG1OH/OGm9YdH1tL8ndTFm4lRiBbPQkCRJaqa1SaeL7wlsD6zPq9czzgceIHUvLiNNJXY7dzWGhYYkSVIeBoCVh/45DngiNo60dBYakiRJkkrnORqSJEmSSmehIUmSJKl0FhqSJEmSSmehIUmSJKl0FhqSJEmSSmehIUmSJKl0FhqSJEmSSmehIUmSJKl0FhqSJEmSSmehIUmSJKl0FhqSJEmSSmehIUmSJKl0FhqSJEmSSmehIUmSJKl0FhqSJEmSSmehIUmSJKl0FhqSJEmSSmehIUmSJKl0FhqSJEmSSmehIUmSJKl0FhqSJEmSSmehIUmSJKl0FhqSJEmSSmehIUmSJKl0FhqSJEmSSmehIUmSJKl0FhqSJEmSSmehIUmSJKl0/w/eBrqbnKUM8gAAAABJRU5ErkJggg==;" vertex="1" parent="1">
          <mxGeometry x="55" y="50" width="90" height="90" as="geometry" />
        </mxCell>
        <mxCell id="fM6thUue3wjX5BOA2LkH-53" style="edgeStyle=orthogonalEdgeStyle;rounded=0;orthogonalLoop=1;jettySize=auto;html=1;exitX=0.5;exitY=1;exitDx=0;exitDy=0;entryX=0.5;entryY=0;entryDx=0;entryDy=0;" edge="1" parent="1" source="fM6thUue3wjX5BOA2LkH-50" target="fM6thUue3wjX5BOA2LkH-51">
          <mxGeometry relative="1" as="geometry" />
        </mxCell>
        <mxCell id="fM6thUue3wjX5BOA2LkH-50" value="Set-up" style="rounded=1;whiteSpace=wrap;html=1;fillColor=#ffe6cc;fontStyle=1" vertex="1" parent="1">
          <mxGeometry x="180" y="160" width="80" height="30" as="geometry" />
        </mxCell>
        <mxCell id="fM6thUue3wjX5BOA2LkH-54" style="edgeStyle=orthogonalEdgeStyle;rounded=0;orthogonalLoop=1;jettySize=auto;html=1;exitX=0.5;exitY=1;exitDx=0;exitDy=0;entryX=0.5;entryY=0;entryDx=0;entryDy=0;" edge="1" parent="1" source="fM6thUue3wjX5BOA2LkH-51" target="fM6thUue3wjX5BOA2LkH-52">
          <mxGeometry relative="1" as="geometry" />
        </mxCell>
        <mxCell id="fM6thUue3wjX5BOA2LkH-51" value="Scope" style="rounded=1;whiteSpace=wrap;html=1;fillColor=#ffe6cc;fontStyle=1" vertex="1" parent="1">
          <mxGeometry x="180" y="210" width="80" height="30" as="geometry" />
        </mxCell>
        <mxCell id="fM6thUue3wjX5BOA2LkH-56" style="edgeStyle=orthogonalEdgeStyle;rounded=0;orthogonalLoop=1;jettySize=auto;html=1;exitX=0.5;exitY=1;exitDx=0;exitDy=0;" edge="1" parent="1" source="fM6thUue3wjX5BOA2LkH-52" target="fM6thUue3wjX5BOA2LkH-55">
          <mxGeometry relative="1" as="geometry" />
        </mxCell>
        <mxCell id="fM6thUue3wjX5BOA2LkH-52" value="Run model" style="rounded=1;whiteSpace=wrap;html=1;fillColor=#ffe6cc;fontStyle=1" vertex="1" parent="1">
          <mxGeometry x="180" y="262" width="80" height="30" as="geometry" />
        </mxCell>
        <mxCell id="fM6thUue3wjX5BOA2LkH-59" style="edgeStyle=orthogonalEdgeStyle;rounded=0;orthogonalLoop=1;jettySize=auto;html=1;exitX=0.5;exitY=1;exitDx=0;exitDy=0;entryX=0.5;entryY=0;entryDx=0;entryDy=0;" edge="1" parent="1" source="fM6thUue3wjX5BOA2LkH-55" target="fM6thUue3wjX5BOA2LkH-57">
          <mxGeometry relative="1" as="geometry" />
        </mxCell>
        <mxCell id="fM6thUue3wjX5BOA2LkH-55" value="Evaluate against guidelines" style="rounded=1;whiteSpace=wrap;html=1;fillColor=#ffe6cc;fontStyle=1" vertex="1" parent="1">
          <mxGeometry x="180" y="360" width="80" height="60" as="geometry" />
        </mxCell>
        <mxCell id="fM6thUue3wjX5BOA2LkH-60" style="edgeStyle=orthogonalEdgeStyle;rounded=0;orthogonalLoop=1;jettySize=auto;html=1;exitX=0.5;exitY=1;exitDx=0;exitDy=0;entryX=0.5;entryY=0;entryDx=0;entryDy=0;" edge="1" parent="1" source="fM6thUue3wjX5BOA2LkH-57" target="fM6thUue3wjX5BOA2LkH-58">
          <mxGeometry relative="1" as="geometry" />
        </mxCell>
        <mxCell id="fM6thUue3wjX5BOA2LkH-57" value="Summary report" style="rounded=1;whiteSpace=wrap;html=1;fillColor=#ffe6cc;fontStyle=1" vertex="1" parent="1">
          <mxGeometry x="180" y="500" width="80" height="40" as="geometry" />
        </mxCell>
        <mxCell id="fM6thUue3wjX5BOA2LkH-58" value="Research compendium" style="rounded=1;whiteSpace=wrap;html=1;fillColor=#ffe6cc;fontStyle=1" vertex="1" parent="1">
          <mxGeometry x="180" y="560" width="80" height="40" as="geometry" />
        </mxCell>
        <mxCell id="fM6thUue3wjX5BOA2LkH-61" value="&lt;span style=&quot;color: rgb(0, 0, 0); font-family: Helvetica; font-size: 12px; font-style: normal; font-variant-ligatures: normal; font-variant-caps: normal; font-weight: 400; letter-spacing: normal; orphans: 2; text-align: center; text-indent: 0px; text-transform: none; widows: 2; word-spacing: 0px; -webkit-text-stroke-width: 0px; white-space: normal; background-color: rgb(251, 251, 251); text-decoration-thickness: initial; text-decoration-style: initial; text-decoration-color: initial; display: inline !important; float: none;&quot;&gt;Inform authors, create repository using template, and get article and code&lt;/span&gt;" style="text;whiteSpace=wrap;html=1;" vertex="1" parent="1">
          <mxGeometry x="270" y="160" width="420" height="30" as="geometry" />
        </mxCell>
        <mxCell id="fM6thUue3wjX5BOA2LkH-62" value="&lt;span style=&quot;color: rgb(0, 0, 0); font-family: Helvetica; font-size: 12px; font-style: normal; font-variant-ligatures: normal; font-variant-caps: normal; font-weight: 400; letter-spacing: normal; orphans: 2; text-align: center; text-indent: 0px; text-transform: none; widows: 2; word-spacing: 0px; -webkit-text-stroke-width: 0px; white-space: normal; background-color: rgb(251, 251, 251); text-decoration-thickness: initial; text-decoration-style: initial; text-decoration-color: initial; display: inline !important; float: none;&quot;&gt;Read article, define scope of reproduction, and archive on Zenodo&lt;/span&gt;" style="text;whiteSpace=wrap;html=1;" vertex="1" parent="1">
          <mxGeometry x="270" y="210" width="390" height="40" as="geometry" />
        </mxCell>
        <mxCell id="fM6thUue3wjX5BOA2LkH-63" value="&lt;span style=&quot;color: rgb(0, 0, 0); font-family: Helvetica; font-size: 12px; font-style: normal; font-variant-ligatures: normal; font-variant-caps: normal; font-weight: 400; letter-spacing: normal; orphans: 2; text-align: center; text-indent: 0px; text-transform: none; widows: 2; word-spacing: 0px; -webkit-text-stroke-width: 0px; white-space: normal; background-color: rgb(251, 251, 251); text-decoration-thickness: initial; text-decoration-style: initial; text-decoration-color: initial; display: inline !important; float: none;&quot;&gt;Look at code, make environment, and attempt to reproduce, which involves troubleshooting issues (e.g. modifying code) and evaluating whether items were successfully reproduced or not&lt;/span&gt;" style="text;whiteSpace=wrap;html=1;" vertex="1" parent="1">
          <mxGeometry x="266.96000000000004" y="252" width="393.04" height="50" as="geometry" />
        </mxCell>
        <mxCell id="fM6thUue3wjX5BOA2LkH-64" value="&lt;span style=&quot;color: rgb(0, 0, 0); font-family: Helvetica; font-size: 12px; font-style: normal; font-variant-ligatures: normal; font-variant-caps: normal; font-weight: 400; letter-spacing: normal; orphans: 2; text-align: center; text-indent: 0px; text-transform: none; widows: 2; word-spacing: 0px; -webkit-text-stroke-width: 0px; white-space: normal; background-color: rgb(251, 251, 251); text-decoration-thickness: initial; text-decoration-style: initial; text-decoration-color: initial; display: inline !important; float: none;&quot;&gt;Reporting guidelines for discrete-event simulation studies&lt;/span&gt;&lt;div&gt;&lt;span style=&quot;color: rgb(0, 0, 0); font-family: Helvetica; font-size: 12px; font-style: normal; font-variant-ligatures: normal; font-variant-caps: normal; font-weight: 400; letter-spacing: normal; orphans: 2; text-align: center; text-indent: 0px; text-transform: none; widows: 2; word-spacing: 0px; -webkit-text-stroke-width: 0px; white-space: normal; background-color: rgb(251, 251, 251); text-decoration-thickness: initial; text-decoration-style: initial; text-decoration-color: initial; display: inline !important; float: none;&quot;&gt;Recommendations for sharing simulation research artefacts&lt;/span&gt;&lt;/div&gt;&lt;div&gt;&lt;span style=&quot;color: rgb(0, 0, 0); font-family: Helvetica; font-size: 12px; font-style: normal; font-variant-ligatures: normal; font-variant-caps: normal; font-weight: 400; letter-spacing: normal; orphans: 2; text-align: center; text-indent: 0px; text-transform: none; widows: 2; word-spacing: 0px; -webkit-text-stroke-width: 0px; white-space: normal; background-color: rgb(251, 251, 251); text-decoration-thickness: initial; text-decoration-style: initial; text-decoration-color: initial; display: inline !important; float: none;&quot;&gt;Criteria from journal badges relating to openness and reproducibility&lt;/span&gt;&lt;/div&gt;" style="text;whiteSpace=wrap;html=1;" vertex="1" parent="1">
          <mxGeometry x="270" y="360" width="380" height="70" as="geometry" />
        </mxCell>
        <mxCell id="fM6thUue3wjX5BOA2LkH-65" value="&lt;span style=&quot;color: rgb(0, 0, 0); font-family: Helvetica; font-size: 12px; font-style: normal; font-variant-ligatures: normal; font-variant-caps: normal; font-weight: 400; letter-spacing: normal; orphans: 2; text-align: center; text-indent: 0px; text-transform: none; widows: 2; word-spacing: 0px; -webkit-text-stroke-width: 0px; white-space: normal; background-color: rgb(251, 251, 251); text-decoration-thickness: initial; text-decoration-style: initial; text-decoration-color: initial; display: inline !important; float: none;&quot;&gt;Organise repository, Dockerfile and hosted image, tests, and documentation&lt;/span&gt;" style="text;whiteSpace=wrap;html=1;" vertex="1" parent="1">
          <mxGeometry x="270" y="565" width="420" height="30" as="geometry" />
        </mxCell>
      </root>
    </mxGraphModel>
  </diagram>
</mxfile>
